<svg width="249" height="159" viewBox="0 0 249 159" fill="none" xmlns="http://www.w3.org/2000/svg"><path d="M88.274 0v119.409" stroke="#89488F" stroke-width=".473" stroke-miterlimit="10"/><path d="M102.644 6.56v112.85" stroke="#89488F" stroke-width=".774" stroke-miterlimit="10"/><path d="M117.012 13.122v106.287" stroke="#89488F" stroke-width="1.075" stroke-miterlimit="10"/><path d="M131.381 19.617v99.792" stroke="#89488F" stroke-width="1.376" stroke-miterlimit="10"/><path d="M145.814 26.178v93.231" stroke="#89488F" stroke-width="1.677" stroke-miterlimit="10"/><path d="M160.183 32.739v86.67" stroke="#89488F" stroke-width="1.978" stroke-miterlimit="10"/><path d="M174.551 39.3v80.109" stroke="#89488F" stroke-width="2.279" stroke-miterlimit="10"/><path d="M188.92 45.86v73.549" stroke="#89488F" stroke-width="2.58" stroke-miterlimit="10"/><path d="M203.289 52.422v66.987" stroke="#89488F" stroke-width="2.881" stroke-miterlimit="10"/><path d="M217.656 58.983v60.426" stroke="#89488F" stroke-width="3.182" stroke-miterlimit="10"/><path d="M232.025 65.478v53.931" stroke="#89488F" stroke-width="3.483" stroke-miterlimit="10"/><path d="M246.394 72.04v47.369" stroke="#89488F" stroke-width="3.784" stroke-miterlimit="10"/><path d="M180.917 276.084V131.088" stroke="#FF8F2A" stroke-width=".473" stroke-miterlimit="10"/><path d="M164.646 268.211V131.088" stroke="#FF8F2A" stroke-width=".774" stroke-miterlimit="10"/><path d="M148.375 260.404V131.088" stroke="#FF8F2A" stroke-width="1.075" stroke-miterlimit="10"/><path d="M132.104 252.53V131.088" stroke="#FF8F2A" stroke-width="1.376" stroke-miterlimit="10"/><path d="M115.833 244.657V131.088" stroke="#FF8F2A" stroke-width="1.677" stroke-miterlimit="10"/><path d="M99.561 236.784V131.088" stroke="#FF8F2A" stroke-width="1.978" stroke-miterlimit="10"/><path d="M83.29 228.977v-97.889" stroke="#FF8F2A" stroke-width="2.279" stroke-miterlimit="10"/><path d="M67.085 221.104v-90.016" stroke="#FF8F2A" stroke-width="2.58" stroke-miterlimit="10"/><path d="M50.813 213.231v-82.143" stroke="#FF8F2A" stroke-width="2.881" stroke-miterlimit="10"/><path d="M34.542 205.357v-74.269" stroke="#FF8F2A" stroke-width="3.182" stroke-miterlimit="10"/><path d="M18.273 197.484v-66.396" stroke="#FF8F2A" stroke-width="3.483" stroke-miterlimit="10"/><path d="M2 189.677v-58.589" stroke="#FF8F2A" stroke-width="3.784" stroke-miterlimit="10"/><path d="M64.656 54.325v149.261" stroke="#FF3F02" stroke-width=".473" stroke-miterlimit="10"/><path d="M81.255 62.066v144.932" stroke="#FF3F02" stroke-width=".841" stroke-miterlimit="10"/><path d="M97.79 69.743v140.732" stroke="#FF3F02" stroke-width="1.209" stroke-miterlimit="10"/><path d="M114.322 77.485v136.402" stroke="#FF3F02" stroke-width="1.577" stroke-miterlimit="10"/><path d="M130.855 85.161v132.203" stroke="#FF3F02" stroke-width="1.945" stroke-miterlimit="10"/><path d="M147.389 92.903v127.873" stroke="#FF3F02" stroke-width="2.313" stroke-miterlimit="10"/><path d="M163.924 100.579v123.674" stroke="#FF3F02" stroke-width="2.68" stroke-miterlimit="10"/><path d="M180.456 108.321v119.344" stroke="#FF3F02" stroke-width="3.048" stroke-miterlimit="10"/><path d="M196.989 115.997v115.079" stroke="#FF3F02" stroke-width="3.416" stroke-miterlimit="10"/><path d="M213.59 123.739v110.815" stroke="#FF3F02" stroke-width="3.784" stroke-miterlimit="10"/></svg>