<svg width="400" height="310" viewBox="0 0 400 310" fill="none" xmlns="http://www.w3.org/2000/svg"><path d="M299.217 305.526l.003.001c2.529 1.039 3.882 2.383 4.532 3.828.655 1.455.635 3.097.249 4.799-.385 1.703-1.124 3.417-1.851 4.991-.12.26-.241.518-.361.773-.585 1.25-1.128 2.41-1.368 3.321h0l-.001.007c-.763 3.082-2.754 5.332-4.807 7.653l-.168.19c-2.085 2.358-4.205 4.82-4.737 8.252h0l-.001.009c-.374 2.743-2.333 5.017-5.254 6.249-.684.184-1.443.377-2.271.28-1.183-.172-2.241-.901-3.02-1.842-.78-.943-1.224-2.033-1.252-2.85.027-.826.298-1.592.634-2.423l.131-.321c.299-.727.623-1.517.78-2.373v-.004c.257-1.47-.039-3.079-.534-4.686-.389-1.264-.917-2.571-1.432-3.848-.14-.347-.279-.692-.414-1.033-.64-1.614-1.193-3.147-1.404-4.531-.21-1.378-.072-2.542.594-3.476h0l.006-.01c.876-1.294 2.583-1.947 4.601-2.546.276-.082.557-.163.841-.244a42.294 42.294 0 002.155-.662c.971-.338 1.908-.75 2.678-1.331v-.001c1.127-.854 1.809-1.985 2.385-3.109.15-.293.292-.583.431-.869.409-.836.799-1.635 1.328-2.37l.007-.01.007-.011c1.232-1.907 4.099-3.227 7.513-1.803z" stroke="#DC0854" stroke-miterlimit="10"/><path d="M271.885 330.409l-.002-.005c-.397-.833-.841-1.701-1.299-2.596-.782-1.529-1.603-3.133-2.294-4.768-1.093-2.581-1.787-5.079-1.45-7.193.323-1.938 1.478-3.28 3.121-4.431 1.371-.936 3.091-1.558 5.027-2.1.882-.247 1.799-.474 2.741-.708l.269-.067a81.236 81.236 0 003.147-.829c1.905-.51 3.647-1.161 5.023-2.208 1.637-1.12 2.751-2.602 3.713-4.205.438-.729.849-1.492 1.262-2.258l.123-.227c.457-.846.922-1.698 1.444-2.54l.002-.004c2.832-4.668 8.913-5.939 15.029-3.26 2.054.9 3.87 1.95 5.452 3.147 2.313 1.838 4.621 4.138 6.205 6.611 1.588 2.48 2.41 5.073 1.868 7.534-.108.489-.415.977-.884 1.486-.468.508-1.063.999-1.7 1.503-.107.086-.216.171-.326.258-.527.415-1.069.841-1.54 1.275-.568.522-1.083 1.097-1.369 1.741h0l-.003.007c-.585 1.371-1.113 2.703-1.62 3.982-.936 2.361-1.803 4.546-2.827 6.481h0l-.004.01c-1.342 2.668-2.209 5.491-3.051 8.235l-.289.939c-.945 3.052-1.925 5.979-3.568 8.579-.74 1.166-2.047 2.041-3.501 2.967l-.231.147c-1.336.848-2.768 1.757-3.7 2.976-.404.423-.63.819-.792 1.387l-.002.008-.002.008c-1.06 4.234-4.409 7.185-8.881 8.563l-.007.002-.007.002c-1.195.407-2.534.594-4.18.335l-.105-.017-.077.021-.069-.016c-2.321-.513-4.496-2.002-6.127-3.791-1.64-1.799-2.661-3.821-2.774-5.337l-.001-.009-.001-.009c-.153-1.362.162-2.566.602-3.79.108-.3.225-.605.344-.915.356-.928.731-1.904.924-2.924.162-.793.266-1.502.253-2.285 0-1.975-.541-3.973-1.287-5.93-.586-1.539-1.311-3.081-2.016-4.58-.19-.404-.379-.805-.563-1.202z" stroke="#DC0854" stroke-miterlimit="10"/><path d="M257.066 310.407l.002-.008c.756-2.956 2.963-4.698 5.592-6.036 2.092-1.053 4.533-1.71 7.158-2.276.936-.202 1.899-.393 2.877-.586 1.739-.344 3.522-.697 5.266-1.135a21.669 21.669 0 006.621-2.718h.001l.011-.007c2.198-1.451 3.724-3.39 5.045-5.519.66-1.063 1.274-2.182 1.893-3.314l.035-.064c.61-1.114 1.227-2.243 1.911-3.366 4.692-7.64 13.849-8.75 22.613-4.839 3.061 1.478 6.019 3.047 8.442 5.015h0l.005.004c3.38 2.676 7.292 6.124 10.148 9.871 2.867 3.76 4.595 7.719 3.814 11.453-.154.663-.695 1.328-1.567 2.023-.862.689-1.968 1.345-3.129 2.014l-.37.212c-1.032.594-2.086 1.199-2.976 1.83-.986.699-1.853 1.484-2.253 2.399h0l-.002.005c-.796 1.872-1.503 3.729-2.19 5.533-.364.956-.723 1.897-1.086 2.818-1.052 2.67-2.152 5.193-3.568 7.522-2.373 3.852-3.1 8.408-3.754 12.865l-.073.501c-.632 4.322-1.247 8.527-3.184 12.118l-.001.002c-.365.686-1.039 1.265-1.959 1.785-.917.519-2.029.952-3.214 1.373-.353.125-.714.25-1.076.375-.84.29-1.69.584-2.481.9-1.132.452-2.201.969-3.017 1.634-.573.452-1.075 1.007-1.323 1.739l-.006.018-.005.018c-1.562 6.103-6.581 9.977-12.721 11.713-1.836.492-3.804.752-6.331.274l-.349-.066-.017.029c-3.372-.796-6.595-2.971-9.043-5.549-2.483-2.615-4.09-5.563-4.299-7.785h0l-.001-.013c-.25-2.073.212-3.845.835-5.638.129-.372.267-.748.406-1.129.522-1.429 1.07-2.925 1.306-4.564h0l.001-.012c.116-.97.187-2.132.078-3.258-.466-5.223-3.261-10.571-5.753-15.336a302.34 302.34 0 01-.798-1.533l-.002-.003c-.55-1.045-1.179-2.16-1.837-3.326-1.281-2.268-2.67-4.73-3.8-7.247-1.708-3.808-2.731-7.567-1.875-10.716z" stroke="#DC0854" stroke-miterlimit="10"/><path d="M257.064 332.879h0c-.717-1.354-1.556-2.82-2.441-4.365-1.682-2.94-3.532-6.171-5.029-9.482-2.283-5.049-3.645-10.087-2.342-14.27 1.182-3.711 4.526-5.958 8.132-7.472 2.81-1.159 5.964-1.848 9.252-2.453.792-.146 1.593-.287 2.398-.428 2.516-.443 5.073-.894 7.538-1.519 3.359-.714 6.071-1.814 8.41-3.29h.001c4.704-2.986 7.241-7.685 10.003-12.799.415-.77.836-1.549 1.27-2.333v-.001c2.989-5.422 7.637-8.278 12.958-9.154 5.338-.879 11.371.236 17.07 2.808h0l.005.003c4.143 1.815 8.028 4.059 11.381 6.712 4.384 3.476 9.892 8.066 14.02 13.078 4.147 5.035 6.796 10.368 5.716 15.361v.001c-.194.905-.98 1.783-2.243 2.674-1.247.88-2.854 1.701-4.526 2.53l-.522.259c-1.491.737-3.002 1.484-4.267 2.272-1.395.869-2.595 1.849-3.103 3.017l-.001.003c-1.108 2.599-2.051 5.174-2.968 7.675a284.56 284.56 0 01-1.329 3.58c-1.376 3.607-2.852 7.031-4.906 10.216-3.153 4.817-3.729 10.79-4.139 16.677l-.084 1.226c-.373 5.515-.737 10.891-2.931 15.381-.42.831-1.291 1.491-2.535 2.043-1.238.549-2.769.959-4.41 1.335-.58.133-1.176.263-1.776.393-1.073.233-2.155.467-3.167.729-1.581.407-3.069.896-4.204 1.592l-.019.012-.019.014-.016.012c-.372.279-.781.585-1.116.925-.339.344-.641.761-.75 1.279-2.008 7.864-8.532 12.607-16.506 14.743-2.343.628-5.082 1.006-8.401.219a.779.779 0 00-.175-.048 1.492 1.492 0 00-.15-.016h-.005l-.023-.001-.01-.006-.065-.017c-4.495-1.178-8.819-4.129-12.125-7.562-3.318-3.444-5.536-7.293-5.923-10.21l-.001-.005c-.399-2.809.224-5.173 1.05-7.538.158-.453.325-.908.493-1.368.702-1.916 1.43-3.906 1.679-6.11l.002-.014.001-.013.001-.023c.083-1.386.17-2.829-.032-4.295-.375-3.852-1.782-7.685-3.522-11.373-1.184-2.509-2.537-4.979-3.835-7.349a261.055 261.055 0 01-1.764-3.255z" stroke="#DC0854" stroke-miterlimit="10"/><path d="M237.484 299.283l-.001.002c-1.804 5.185-.077 11.518 2.83 17.819 1.925 4.174 4.32 8.242 6.465 11.885 1.092 1.856 2.12 3.601 2.987 5.194m-12.281-34.9l11.842 35.14m-11.842-35.14c1.631-4.748 6.058-7.388 10.635-9.072 3.525-1.262 7.39-1.981 11.395-2.628.714-.115 1.433-.228 2.155-.342 3.311-.521 6.686-1.053 9.971-1.857 4.038-.896 7.269-2.133 10.084-3.923h.001c5.894-3.764 9.084-9.729 12.692-16.473.278-.52.558-1.044.843-1.573h0c3.729-6.953 9.587-10.524 16.275-11.571 6.707-1.051 14.268.436 21.341 3.654 5.139 2.388 10.063 5.09 14.262 8.52l.003.003.01.007c5.41 4.361 12.535 10.102 17.954 16.37 5.444 6.297 9.038 12.978 7.66 19.236m-135.281-.351l135.281.351m-123 34.549l.001.001-.44.239m.439-.24l-.001-.002-.438.242m.439-.24a390.58 390.58 0 002.006 3.571c1.706 3.013 3.502 6.183 5.085 9.42 2.224 4.548 4.056 9.278 4.663 13.985m-12.193-26.736c.647 1.171 1.326 2.369 2.017 3.591 4.1 7.238 8.661 15.293 9.681 23.217m.495-.072l-.002-.009-.493.081m.495-.072l.001.008-.496.064m.495-.072l-.495.072m92.606-48.629c-1.436 3.279-2.61 6.564-3.759 9.779-.502 1.407-1 2.8-1.513 4.174-1.692 4.53-3.56 8.882-6.337 12.948-3.986 5.743-4.396 13.101-4.539 20.41l-.033 1.875c-.112 6.733-.221 13.33-2.725 18.797l-.001.001c-.452.995-1.52 1.751-3.104 2.344-1.572.588-3.547.979-5.665 1.317-.791.126-1.606.245-2.423.364-1.345.197-2.697.394-3.962.626-2.038.373-3.941.847-5.366 1.592l-.013.007-.012.007c-1.109.666-2.043 1.326-2.388 2.53h0l-.003.013c-2.512 9.755-10.616 15.477-20.355 17.905l-.008.002 62.207-94.692-.001.001zm0 0c.611-1.413 2.136-2.586 3.943-3.626 1.66-.955 3.659-1.852 5.638-2.74l.605-.272c2.19-.985 4.31-1.965 5.959-3.028 1.669-1.076 2.73-2.16 2.99-3.302m-19.135 12.968l19.135-12.968m-111.11 66.947v-.004l-.499-.038.498.046.001-.004zm18.883 40.797l-.024-.003c-.011-.002.021.002.065.027l-.041-.024zm.408.114l-.118.486.25-.433a1.271 1.271 0 00-.072-.039 1.3 1.3 0 01-.06-.014z" stroke="#DC0854" stroke-miterlimit="10"/><path d="M320.314 399.24c2.598-1.131 6.69-1.535 10.839-1.945 6.389-.63 12.91-1.273 14.306-4.608l-25.336 6.091m.191.462l-.182-.466-.009.004m.191.462c-1.502.587-2.395 1.379-2.743 2.486l2.743-2.486zm-.191-.462c1.719-.747 4.03-1.177 6.516-1.497 1.43-.183 2.956-.334 4.48-.485 1.121-.11 2.241-.221 3.322-.345 2.583-.295 4.991-.669 6.888-1.299 1.915-.636 3.18-1.491 3.669-2.659l.002-.003c2.786-6.513 2.652-14.374 2.516-22.351-.013-.794-.027-1.59-.038-2.385-.117-8.711.113-17.417 4.782-24.088l.002-.003c3.473-4.895 5.746-10.136 7.761-15.603a321.222 321.222 0 001.975-5.569c1.294-3.72 2.617-7.521 4.234-11.328l.001-.002c.712-1.655 2.559-3.021 4.779-4.232 2.054-1.121 4.54-2.167 7.008-3.205l.689-.29c2.707-1.14 5.34-2.279 7.391-3.525 2.074-1.259 3.414-2.548 3.744-3.931 1.623-7.562-2.908-15.622-9.619-23.16-6.518-7.321-14.96-14.005-21.346-19.062l-.495-.391-.002-.002c-5.121-4.109-11.029-7.378-17.209-10.222-8.391-3.835-17.438-5.706-25.487-4.502-8.027 1.2-15.079 5.459-19.549 13.943h0l-.227.43c-4.53 8.586-8.407 15.934-15.744 20.575l-.005.003c-3.218 1.988-7.027 3.473-11.698 4.446-3.8.83-7.679 1.376-11.501 1.913-.883.124-1.763.248-2.638.375-4.675.677-9.223 1.44-13.463 2.804-5.716 1.898-11.124 4.992-13.19 10.503-2.287 6.28-.217 13.897 3.292 21.416 2.382 5.103 5.378 10.069 8.03 14.465 1.253 2.077 2.429 4.027 3.428 5.804l.001.003a342.925 342.925 0 002.945 5.159c1.906 3.297 3.899 6.743 5.682 10.26 2.745 5.413 5.032 11.062 5.806 16.742v.002c.276 2.072.378 4.2.194 6.318-.231 3.427-1.337 6.464-2.417 9.429-.203.558-.406 1.114-.601 1.669-1.242 3.527-2.232 7.093-1.613 11.407.614 4.282 3.988 9.964 8.991 15.055 4.991 5.078 11.527 9.489 18.355 11.286l.065.017.036.021.007.002c.028.007.062.015.114.025.046.01.109.022.168.038.036.01.09.025.149.05 5.098 1.232 9.09.702 12.578-.142 11.399-2.781 21.25-9.528 24.205-21.056l.004-.013.004-.013c.41-1.303 1.456-2.181 3.029-2.797z" stroke="#DC0854" stroke-miterlimit="10"/><path d="M246.905 407.363v-.003c-.747-4.969.389-9.103 1.821-13.211.223-.64.453-1.28.685-1.923 1.249-3.467 2.531-7.023 2.798-11.05.201-2.4.068-4.982-.3-7.403-.974-6.591-3.642-13.148-6.849-19.428-2.278-4.459-4.841-8.803-7.274-12.926a510.763 510.763 0 01-2.881-4.923c-1.131-1.988-2.468-4.179-3.896-6.522-3.119-5.114-6.676-10.948-9.489-16.947-4.105-8.754-6.518-17.657-3.723-24.945 2.518-6.549 9.119-9.97 15.814-12.04 4.894-1.493 10.132-2.258 15.49-2.923a948.28 948.28 0 012.756-.335c4.46-.536 8.973-1.08 13.371-1.989 5.301-1.049 9.69-2.783 13.378-5.081 8.51-5.276 12.959-13.773 18.235-23.916 5.264-9.985 13.54-14.917 22.92-16.263 9.403-1.349 19.935.907 29.644 5.356 7.054 3.348 14.053 7.247 20.093 12.033l1.537 1.216c7.279 5.757 16.773 13.265 24.223 21.464 3.992 4.393 7.378 8.965 9.519 13.55 2.141 4.584 3.026 9.152 2.065 13.563l-.001.003c-.347 1.653-1.934 3.165-4.393 4.619-2.43 1.438-5.57 2.739-8.793 4.035l-.923.371c-2.907 1.166-5.828 2.337-8.24 3.598-1.336.698-2.534 1.432-3.498 2.221-.961.786-1.716 1.647-2.128 2.607-1.938 4.47-3.491 8.978-5.019 13.41a364.45 364.45 0 01-2.187 6.222c-2.339 6.405-5.005 12.578-9.174 18.303l-.001.001c-5.494 7.589-5.576 17.696-5.2 27.845.037 1.019.08 2.039.122 3.058.17 4.08.338 8.14.201 12.06-.171 4.894-.818 9.526-2.517 13.642-.561 1.291-2.052 2.211-4.313 2.866-2.238.647-5.084.992-8.134 1.246-1.273.106-2.587.196-3.903.286-1.808.124-3.616.248-5.317.413-2.946.285-5.676.699-7.707 1.482-1.698.642-3.155 1.606-3.52 3.143-3.401 13.297-14.763 20.912-27.991 24.092-4.115.92-8.73 1.525-14.71.074-.152-.075-.287-.102-.372-.12l-.01-.002a.45.45 0 01-.155-.046l-.056-.032-.063-.017c-7.938-2.146-15.571-7.3-21.408-13.212-5.849-5.925-9.815-12.53-10.527-17.522z" stroke="#DC0854" stroke-miterlimit="10"/><path d="M208.096 282.483l-.002.005c-3.333 8.351-.562 18.512 4.167 28.48 3.191 6.724 7.219 13.262 10.766 19.018 1.71 2.775 3.307 5.367 4.645 7.712m-19.576-55.215l19.142 55.463m-19.142-55.463c2.847-7.37 10.598-11.288 18.263-13.526l-18.263 13.526zm19.576 55.215h.001l-.435.248m.434-.248v-.001l-.434.249m.434-.248c1.129 1.963 2.326 3.984 3.551 6.053 2.696 4.55 5.528 9.331 8.063 14.234 3.691 7.14 6.784 14.596 7.958 22.1m-20.006-42.139c1.136 1.976 2.337 4.003 3.564 6.076 6.612 11.16 13.99 23.614 15.948 36.143m.494-.08l-.001-.003-.493.083m.494-.08v.002l-.494.078m.494-.08l-.494.08m31.462 73.278l-.056-.005-.03.499.13-.483a.566.566 0 01-.044-.011zm17.611.118h-.002l.115.487-.111-.488-.002.001zm35.851-30.703a.036.036 0 00-.011.004l.173.469-.15-.477-.012.004zm36.467-22.033c-.1 5.585-.757 10.875-2.646 15.57L262.087 262.736l.101.489h.002c5.98-1.231 10.885-3.101 15.046-5.711 9.559-5.834 14.575-15.313 20.606-26.763l.003-.004c5.95-11.548 15.436-17.196 26.186-18.713 10.774-1.521 22.836 1.109 33.862 6.174l.002.001c8.265 3.757 16.244 8.221 23.137 13.789l.001.001c1.011.811 2.072 1.656 3.172 2.533 8.058 6.418 18.249 14.537 26.39 23.362 4.624 5.013 8.566 10.233 11.075 15.476 2.508 5.241 3.57 10.474 2.484 15.538v.003c-.191.909-.74 1.789-1.617 2.652-.877.864-2.059 1.689-3.469 2.488-2.822 1.6-6.471 3.053-10.212 4.505l-.889.345c-3.436 1.331-6.893 2.671-9.736 4.12-1.546.788-2.928 1.617-4.036 2.507-1.105.887-1.965 1.858-2.427 2.937-2.236 5.162-4 10.361-5.733 15.47a396.677 396.677 0 01-2.453 7.086c-2.649 7.351-5.694 14.43-10.558 20.984l-.002.002c-6.261 8.536-6.18 20.013-5.552 31.577.064 1.187.134 2.374.205 3.561.273 4.625.546 9.231.466 13.68z" stroke="#DC0854" stroke-miterlimit="10"/><path d="M219.219 261.934l-.003.001c-8.733 2.34-17.475 6.708-20.886 15.064m20.889-15.065l-21.353 14.877m21.353-14.877c6.265-1.725 12.865-2.578 19.583-3.33.946-.106 1.894-.21 2.844-.314 5.786-.634 11.635-1.275 17.367-2.414 6.723-1.244 12.208-3.363 16.773-6.173l.002-.001c10.559-6.562 16.311-17.061 22.931-29.783v-.001c6.745-13.051 17.455-19.372 29.56-21.034 12.128-1.665 25.676 1.349 38.02 7.029l.003.002c9.307 4.213 18.268 9.244 26.081 15.49 1.264 1.012 2.602 2.073 3.995 3.178 9.026 7.158 20.396 16.176 29.523 25.964 5.267 5.648 9.766 11.531 12.634 17.438 2.866 5.905 4.088 11.801 2.852 17.502-.225 1.033-.862 2.026-1.871 2.995-1.008.97-2.364 1.892-3.974 2.782-3.225 1.782-7.388 3.392-11.645 5l-.973.367c-3.924 1.48-7.869 2.967-11.105 4.58-1.754.875-3.318 1.795-4.568 2.784-1.248.987-2.212 2.064-2.725 3.262-2.445 5.675-4.384 11.415-6.296 17.074-.936 2.771-1.865 5.522-2.844 8.237-2.987 8.282-6.453 16.278-12.014 23.664h-.001c-7.052 9.396-6.836 22.229-5.955 35.209.096 1.414.2 2.831.303 4.246.376 5.11.75 10.203.74 15.123-.012 6.278-.649 12.224-2.686 17.487h0c-.638 1.652-2.538 2.759-5.463 3.477-2.891.71-6.605.996-10.591 1.155-1.645.065-3.342.109-5.041.153-2.389.062-4.782.123-7.038.246-3.868.209-7.44.599-10.087 1.497l-.005.002M219.219 261.934l118.329 172.893M198.33 276.999l-.001.001-.463-.189m.464.188v-.001l-.464-.187m.464.188c-3.789 9.394-.673 20.843 4.651 32.045 3.665 7.709 8.323 15.202 12.389 21.743 1.838 2.956 3.555 5.719 5.004 8.217m-22.508-62.193c-6.547 16.231 7.123 38.222 17.099 54.273 1.833 2.949 3.542 5.697 4.977 8.172m.432-.252l-.432.252m.432-.252l.001.002-.433.25m.432-.252l-.432.252m117.606 95.571c-2.19.772-4.022 1.823-4.472 3.769l4.472-3.769zm-94.287-38.915v-.002l-.499-.028.499.03zm-6.758 33.49v-.003l-.494.077.495-.073-.001-.001zm41.126 39.399a1.096 1.096 0 00-.057-.005l-.03.499.133-.482-.046-.012zm19.75.189l.112.488-.106-.489-.004.001h-.002z" stroke="#DC0854" stroke-miterlimit="10"/><path d="M211.969 254.848l.002-.001 246.874 27.029c-1.143 5.382-11.126 9.076-21.032 12.741-9.152 3.387-18.239 6.749-20.223 11.396l-.46-.198s0 0 0 0c-2.743 6.367-4.885 12.787-6.996 19.111-1.019 3.056-2.031 6.089-3.1 9.083-3.289 9.214-7.133 18.116-13.423 26.387l-.001.001c-7.817 10.341-7.44 24.541-6.307 38.937.125 1.578.258 3.158.391 4.737.478 5.659.955 11.303 1.001 16.754.059 6.968-.587 13.571-2.813 19.413-.703 1.824-2.826 3.019-6.081 3.767-3.219.739-7.357.999-11.799 1.113-1.858.047-3.776.069-5.696.091-2.638.031-5.279.061-7.774.158-4.317.167-8.302.535-11.26 1.468-2.511.768-4.445 2.038-4.957 4.081-4.797 18.736-21.006 29.221-39.487 33.441-5.783 1.275-12.57 2.09-21.074-.092l-.046-.012-.048-.003c-.061-.003-.145-.028-.315-.085l-.021-.008a2.312 2.312 0 00-.495-.124c-11.306-3.088-22.177-10.405-30.505-18.769-8.352-8.387-14.07-17.749-15.161-24.851-1.096-7.131.555-13.037 2.597-18.864.302-.859.612-1.718.923-2.58 1.792-4.958 3.614-10.001 3.91-15.73h0v-.012c.094-3.461-.095-6.944-.678-10.509v-.002c-1.572-9.333-5.544-18.604-10.239-27.468-3.136-5.922-6.612-11.689-9.918-17.177a607.326 607.326 0 01-4.725-7.928v-.001c-1.6-2.742-3.503-5.782-5.544-9.043-4.521-7.222-9.72-15.527-13.802-24.08-5.928-12.422-9.388-25.157-5.058-35.617l.001-.002c3.74-9.18 13.636-14.044 23.339-16.552zm162.58-61.465c10.29 4.781 20.234 10.379 28.966 17.301l-147.886 37.715h.002c7.405-1.428 13.406-3.684 18.445-6.806 11.607-7.118 18.034-18.533 25.302-32.631 7.571-14.608 19.495-21.645 32.947-23.473 13.477-1.831 28.509 1.568 42.224 7.894z" stroke="#DC0854" stroke-miterlimit="10"/><path d="M204.723 247.761l-.004.001c-10.774 2.611-21.659 7.925-25.964 18.09-4.839 11.469-1.008 25.507 5.535 39.193 4.457 9.322 10.117 18.378 15.044 26.26 2.303 3.685 4.446 7.114 6.231 10.194 1.624 2.758 3.361 5.61 5.144 8.538 3.678 6.038 7.554 12.402 11.048 18.95 5.192 9.731 9.573 19.929 11.258 30.199.675 3.903.959 7.737.674 11.546-.306 6.294-2.296 11.838-4.257 17.301-.334.933-.668 1.864-.993 2.795-2.233 6.409-4.046 12.912-2.852 20.753 1.19 7.812 7.5 18.097 16.697 27.318 9.181 9.204 21.16 17.269 33.584 20.701.218.045.389.103.536.153l.006.002c.152.052.277.094.439.127l.012.002.011.003c9.394 2.405 16.806 1.513 23.102.101 20.141-4.572 38.04-15.971 43.344-36.595l.003-.013c.645-2.254 2.748-3.565 5.599-4.423h.001l.144.479c5.002-1.522 12.899-1.53 20.838-1.538 12.207-.013 24.515-.026 26.554-5.541L204.723 247.761zm0 0c7.688-1.923 15.686-2.805 23.763-3.61l2.069-.205c7.388-.73 14.825-1.465 22.083-2.944 8.091-1.613 14.668-4.115 20.11-7.435 12.769-7.613 19.763-20.013 27.678-35.482h0c8.226-16.118 21.345-23.844 36.16-25.83 14.84-1.989 31.4 1.784 46.433 8.725h0c11.228 5.177 22.213 11.232 31.906 18.998l.001.001c1.843 1.474 3.822 3.035 5.901 4.674 10.833 8.544 24.358 19.21 35.333 30.777 6.539 6.891 12.15 14.08 15.743 21.306 3.592 7.223 5.151 14.449 3.641 21.441-.282 1.288-1.086 2.514-2.347 3.699-1.261 1.186-2.953 2.306-4.958 3.382-4.013 2.154-9.192 4.086-14.477 6.009l-1.218.443c-4.87 1.769-9.754 3.543-13.753 5.476-2.169 1.048-4.097 2.152-5.632 3.339-1.531 1.184-2.703 2.476-3.316 3.91l-225.12-56.674z" stroke="#DC0854" stroke-miterlimit="10"/><path d="M197.473 240.674h.002c8.4-2.022 17.105-2.932 25.894-3.744l2.7-.247c7.892-.719 15.832-1.443 23.612-2.905l.003-.001c8.717-1.687 15.813-4.328 21.728-7.961 13.83-8.45 21.327-21.718 29.997-38.496l.001-.001c9.052-17.676 23.411-26.102 39.588-28.246 16.203-2.147 34.249 2.01 50.598 9.566l.001.001c12.267 5.632 24.172 12.362 34.787 20.806 2.084 1.665 4.33 3.431 6.692 5.29 11.81 9.288 26.528 20.864 38.499 33.409 7.18 7.526 13.349 15.377 17.301 23.267 3.951 7.886 5.67 15.777 4.01 23.407-.317 1.411-1.209 2.752-2.599 4.044-1.39 1.293-3.252 2.512-5.454 3.681-4.406 2.34-10.089 4.436-15.883 6.519l-1.394.5c-5.322 1.909-10.652 3.822-15.024 5.904-2.379 1.133-4.493 2.325-6.177 3.606-1.681 1.279-2.967 2.671-3.643 4.215l-.002.003c-3.253 7.576-5.782 15.231-8.277 22.786-1.232 3.727-2.455 7.43-3.753 11.086-3.937 11.091-8.581 21.819-16.265 31.752l-.001.001c-9.37 12.142-8.699 29.06-7.06 46.289.187 1.964.387 3.931.586 5.898.679 6.698 1.357 13.384 1.527 19.844.218 8.35-.417 16.267-2.98 23.257-.809 2.183-3.378 3.559-7.314 4.369-3.894.8-8.917 1.004-14.306 1.026a497.13 497.13 0 01-6.973-.038c-3.18-.031-6.362-.063-9.369-.014-5.236.086-10.052.416-13.607 1.438-3.13.84-5.49 2.306-6.084 4.752-5.813 22.508-25.291 34.883-47.194 39.743-6.91 1.486-14.929 2.451-25.181-.157-.382-.204-.812-.291-1.159-.362l-.017-.004c-13.562-3.726-26.638-12.533-36.663-22.57-10.043-10.055-16.946-21.263-18.265-29.732l-.001-.001c-1.346-8.583.614-15.654 3.042-22.62.359-1.028.727-2.054 1.097-3.083 2.131-5.928 4.295-11.95 4.635-18.829.256-4.261-.121-8.437-.776-12.612l-.002-.007c-1.938-11.216-6.772-22.329-12.462-32.93-3.753-6.991-7.894-13.787-11.831-20.247-2.026-3.326-3.998-6.562-5.835-9.691-1.897-3.236-4.159-6.836-6.59-10.704-5.444-8.663-11.735-18.674-16.668-28.982-7.139-14.92-11.315-30.247-6.019-42.761h.001c4.634-10.986 16.779-16.733 28.527-19.514zm-.115-.486c-11.782 2.788-24.14 8.587-28.873 19.805l28.873-19.805z" stroke="#DC0854" stroke-miterlimit="10"/><path d="M190.229 233.587v-.001c9.112-2.12 18.498-3.075 27.961-3.952l2.156-.199c8.745-.804 17.542-1.613 26.188-3.29h.003c9.406-1.872 16.904-4.714 23.393-8.59l.003-.002c14.879-9.007 23.051-23.191 32.37-41.345l.001-.002c9.738-19.239 25.294-28.355 42.824-30.643 17.558-2.291 37.116 2.266 54.783 10.438h.001c13.423 6.154 26.369 13.341 37.836 22.567l.314-.389-.314.389a1111.89 1111.89 0 008.132 6.454c12.604 9.943 28.141 22.199 40.859 35.457 7.813 8.145 14.538 16.645 18.858 25.192 4.318 8.545 6.215 17.101 4.43 25.387-.332 1.528-1.295 2.977-2.802 4.373-1.506 1.396-3.529 2.712-5.923 3.974-4.79 2.525-10.978 4.788-17.286 7.037l-1.495.533c-5.803 2.065-11.616 4.133-16.379 6.387-2.588 1.224-4.886 2.511-6.714 3.895-1.824 1.38-3.214 2.881-3.94 4.543l-.001.001c-3.594 8.273-6.365 16.658-9.102 24.943-1.306 3.949-2.604 7.876-3.979 11.757-4.27 12.044-9.307 23.705-17.689 34.47-5.101 6.535-7.437 14.374-8.262 22.897-.825 8.517-.145 17.751.809 27.096.219 2.142.452 4.289.686 6.436.785 7.235 1.57 14.462 1.8 21.442.299 9.046-.338 17.624-3.091 25.193-.428 1.161-1.33 2.105-2.676 2.868-1.351.766-3.123 1.334-5.232 1.746-4.219.825-9.67 1.006-15.517.989-2.475-.007-5.027-.049-7.581-.091-3.45-.058-6.902-.115-10.169-.085-5.692.052-10.928.368-14.794 1.427l-.01.003c-3.348.99-5.817 2.39-6.543 5.05l-.002.006c-6.318 24.395-27.423 37.577-51.05 42.899-7.593 1.669-16.346 2.648-27.381-.12-.383-.204-.812-.292-1.159-.363l-.016-.003c-14.724-4.106-28.87-13.64-39.713-24.494-10.861-10.872-18.33-22.989-19.802-32.202-1.476-9.238.647-16.905 3.273-24.466a375.65 375.65 0 011.175-3.315c2.307-6.446 4.649-12.99 4.998-20.434l.001-.006c.162-4.596-.196-9.049-.946-13.575v-.002c-2.051-12.154-7.296-24.195-13.484-35.664-4.11-7.62-8.654-15.015-12.963-22.029-2.172-3.534-4.284-6.972-6.251-10.293-2.046-3.479-4.493-7.354-7.125-11.524-5.9-9.345-12.734-20.169-18.085-31.324-7.742-16.14-12.263-32.755-6.425-46.334l.001-.002c5.091-12.028 18.328-18.162 31.046-21.11z" stroke="#DC0854" stroke-miterlimit="10"/><path d="M182.981 226.5l.002-.001c9.824-2.219 19.916-3.202 30.09-4.142l1.246-.115c9.753-.9 19.571-1.805 29.236-3.774 10.146-1.886 18.285-5.085 25.176-9.159l.003-.002c15.93-9.565 24.668-24.732 34.633-44.256v-.001c10.502-20.687 27.281-30.477 46.175-32.923 18.92-2.449 39.98 2.466 58.962 11.252 14.405 6.72 28.334 14.474 40.72 24.377h0c2.629 2.096 5.485 4.333 8.501 6.694 13.677 10.711 30.635 23.989 44.5 38.368 8.459 8.772 15.744 17.932 20.424 27.14 4.678 9.207 6.735 18.428 4.8 27.351-.367 1.652-1.42 3.215-3.058 4.717-1.639 1.501-3.835 2.913-6.43 4.266-5.192 2.706-11.893 5.128-18.719 7.533l-1.579.555c-6.291 2.213-12.59 4.429-17.747 6.847-2.796 1.311-5.275 2.689-7.246 4.172-1.966 1.479-3.46 3.087-4.235 4.866l-.001.001c-3.861 8.907-6.815 17.925-9.735 26.836-1.392 4.249-2.776 8.474-4.247 12.652-4.564 12.963-9.98 25.531-19.092 37.182-5.482 7.006-7.979 15.425-8.842 24.587-.862 9.157-.095 19.09.975 29.148.252 2.364.52 4.734.789 7.103.875 7.728 1.748 15.445 2.038 22.9.377 9.735-.246 18.966-3.147 27.104-.457 1.27-1.43 2.295-2.883 3.118-1.459.826-3.374 1.432-5.652 1.865-4.559.867-10.453 1.023-16.774.961a594.278 594.278 0 01-8.265-.16c-3.704-.089-7.409-.177-10.913-.172-6.147.01-11.791.308-15.943 1.42-3.657.98-6.235 2.601-7.024 5.358l-.003.013c-6.701 26.063-29.449 40.33-54.84 45.94h-.002c-8.295 1.857-17.689 2.911-29.578-.206l-.013-.004-.014-.002c-.182-.038-.393-.09-.618-.147l-.007-.002a16.92 16.92 0 00-.636-.15c-15.862-4.4-31.106-14.676-42.794-26.364-11.706-11.705-19.769-24.746-21.37-34.615v-.001c-1.628-9.98.657-18.242 3.487-26.376.415-1.194.843-2.386 1.271-3.581 2.485-6.926 5.003-13.947 5.361-21.939v-.004c.179-4.877-.208-9.784-1.05-14.657l-.001-.003c-2.337-13.044-8.049-25.971-14.742-38.294-4.357-8.024-9.147-15.82-13.7-23.229-2.434-3.961-4.8-7.812-6.995-11.528l-.001-.001c-2.156-3.635-4.721-7.681-7.479-12.033-6.418-10.123-13.886-21.904-19.714-34.048-8.337-17.374-13.203-35.277-6.909-49.9 5.531-12.794 19.819-19.485 33.609-22.537z" stroke="#DC0854" stroke-miterlimit="10"/><path d="M175.737 219.412h.001c10.534-2.318 21.317-3.302 32.178-4.208l2.147-.178c10.145-.841 20.346-1.687 30.414-3.565h.002c10.832-2.069 19.488-5.406 26.852-9.793l.002-.001c17.04-10.231 26.516-26.422 37.066-47.212h0c11.274-22.277 29.239-32.798 49.468-35.417 20.255-2.623 42.799 2.677 63.153 12.109 15.339 7.115 30.358 15.498 43.663 26.077 2.873 2.291 6.005 4.74 9.317 7.331 14.607 11.426 32.714 25.589 47.545 40.923 9.094 9.402 16.933 19.222 21.97 29.094 5.036 9.87 7.254 19.755 5.167 29.318h0c-.388 1.784-1.521 3.466-3.284 5.076-1.762 1.611-4.126 3.122-6.92 4.567-5.589 2.89-12.807 5.467-20.155 8.024l-1.741.605c-6.761 2.348-13.527 4.697-19.064 7.265-3.008 1.395-5.673 2.863-7.789 4.443-2.111 1.577-3.71 3.29-4.535 5.188v.001c-4.104 9.482-7.255 19.091-10.371 28.594-1.514 4.615-3.019 9.205-4.621 13.743-4.91 13.908-10.747 27.395-20.557 39.878h0c-5.848 7.45-8.491 16.422-9.377 26.199-.886 9.773-.021 20.385 1.174 31.141.282 2.539.582 5.086.882 7.633.973 8.255 1.946 16.505 2.294 24.477.455 10.427-.163 20.324-3.227 29.058-.481 1.343-1.521 2.423-3.076 3.286-1.561.866-3.613 1.496-6.054 1.942-4.884.891-11.205 1.024-17.986.923a643.244 643.244 0 01-8.87-.214c-3.975-.114-7.95-.228-11.715-.241-6.602-.024-12.663.259-17.126 1.408l-.005.001c-3.805 1.02-6.757 2.728-7.497 5.682-7.209 27.949-31.538 43.191-58.692 49.09l-.004.001c-8.809 1.994-18.827 3.124-31.602-.214-.256-.074-.484-.131-.704-.186a18.251 18.251 0 01-.678-.178l-.003-.001c-16.975-4.745-33.339-15.741-45.892-28.238-12.567-12.512-21.238-26.449-22.937-37.027h0c-1.726-10.691.748-19.534 3.782-28.241.424-1.218.86-2.435 1.296-3.653 2.678-7.475 5.39-15.045 5.713-23.688v-.005c.149-5.324-.22-10.511-1.156-15.733-2.504-14.012-8.625-27.866-15.802-41.051-4.734-8.695-9.942-17.127-14.883-25.125-2.546-4.12-5.02-8.125-7.321-11.992l-.001-.001c-2.295-3.842-5.02-8.116-7.953-12.714-6.924-10.858-15.001-23.523-21.287-36.584-8.955-18.601-14.166-37.794-7.329-53.482v-.002c5.988-13.836 21.369-20.913 36.128-24.133z" stroke="#DC0854" stroke-miterlimit="10"/><path d="M168.727 347.402l.001.001c2.527 4.258 5.256 8.673 8.065 13.218 5.194 8.404 10.662 17.251 15.639 26.364 7.675 14.053 14.222 28.806 16.871 43.702v.001l-.493.088c1.022 5.53 1.481 11.027 1.207 16.536l-41.29-99.91zm0 0c-2.416-4.036-5.282-8.527-8.366-13.361-7.391-11.582-16.039-25.134-22.763-39.116-9.536-19.826-15.092-40.308-7.8-57.04 6.427-14.601 22.794-22.127 38.694-25.561 11.246-2.416 22.736-3.428 34.259-4.407l.877-.075c11.22-.953 22.466-1.907 33.484-4.139 11.454-2.144 20.626-5.619 28.462-10.317h.001c17.978-10.851 28.129-27.958 39.326-50.122 12.069-23.778 31.259-34.973 52.841-37.737 21.61-2.767 45.64 2.918 67.311 12.965h.001c16.381 7.572 32.381 16.521 46.54 27.883v.001c3.281 2.629 6.881 5.45 10.697 8.441 15.453 12.111 34.443 26.993 50.059 43.078 9.734 10.027 18.133 20.497 23.539 31.027 5.405 10.528 7.801 21.08 5.59 31.297l-.001.002c-.403 1.901-1.606 3.691-3.484 5.402-1.877 1.71-4.4 3.314-7.382 4.846-5.967 3.066-13.682 5.796-21.537 8.506l-1.834.632c-7.237 2.492-14.48 4.985-20.405 7.715-3.215 1.482-6.061 3.041-8.318 4.72-2.254 1.676-3.955 3.496-4.83 5.511v.001c-4.371 10.116-7.713 20.37-11.018 30.513-1.604 4.92-3.198 9.813-4.898 14.652-5.212 14.84-11.428 29.235-21.935 42.549-6.258 7.906-9.065 17.446-9.98 27.857-.915 10.406.057 21.716 1.384 33.184.315 2.717.649 5.441.984 8.166 1.079 8.795 2.158 17.586 2.566 26.081.535 11.123-.084 21.682-3.338 30.996v.001c-.502 1.438-1.603 2.588-3.256 3.499-1.657.914-3.841 1.572-6.441 2.03-5.201.914-11.945 1.008-19.184.851-3.044-.065-6.181-.175-9.321-.285-4.298-.151-8.601-.302-12.678-.34-7.061-.065-13.55.206-18.341 1.418-4.22.946-7.217 2.764-8.086 5.923l-.002.008c-7.717 29.835-33.671 45.884-62.548 52.244-9.437 2.07-20.082 3.275-33.748-.288l-.013-.003-.013-.003a20.034 20.034 0 01-1.351-.356h-.002c-18.083-5.094-35.544-16.832-48.943-30.163-13.412-13.345-22.674-28.205-24.472-39.494l-.001-.002c-1.878-11.432.743-20.844 3.972-30.11a453.47 453.47 0 011.4-3.941c2.847-7.937 5.732-15.982 6.091-25.207l-41.789-99.932z" stroke="#DC0854" stroke-miterlimit="10"/><path d="M433.633 106.152l.209-.454-.209.454c17.424 8.028 34.514 17.607 49.701 29.708 3.536 2.835 7.431 5.886 11.568 9.126 16.342 12.799 36.444 28.544 53.008 45.562 10.376 10.661 19.339 21.797 25.111 32.995 5.771 11.196 8.334 22.417 5.973 33.272l-.001.002c-.43 2.011-1.716 3.903-3.722 5.712-2.005 1.809-4.699 3.505-7.881 5.125-6.366 3.242-14.597 6.134-22.973 9.006l-1.854.635c-7.751 2.654-15.511 5.311-21.852 8.221-3.425 1.572-6.455 3.227-8.856 5.007-2.397 1.778-4.202 3.707-5.127 5.839v.001c-4.614 10.693-8.152 21.539-11.655 32.273-1.724 5.285-3.44 10.542-5.27 15.742-5.558 15.785-12.196 31.098-23.401 45.244-6.639 8.377-9.601 18.501-10.545 29.557-.944 11.05.125 23.065 1.576 35.249.345 2.904.713 5.817 1.08 8.73 1.175 9.324 2.351 18.643 2.815 27.644.608 11.809-.011 23.013-3.439 32.879v.001c-.644 1.858-2.245 3.259-4.698 4.292-2.455 1.034-5.696 1.671-9.489 2.033-7.511.717-17.042.346-26.605-.025l-.288-.011c-9.636-.374-19.285-.739-26.804.045-3.758.392-7.025 1.074-9.506 2.209-2.487 1.137-4.245 2.759-4.853 5.051v.001c-8.27 31.551-35.806 48.576-66.447 55.225h-.003c-9.949 2.208-21.328 3.427-35.886-.359v-.001c-19.491-5.038-38.37-17.522-52.88-31.822-14.524-14.313-24.589-30.364-26.562-42.48-1.977-12.144.807-22.152 4.226-31.999.481-1.386.976-2.77 1.471-4.156 3.016-8.445 6.07-16.994 6.438-26.787.736-18.885-5.873-37.807-14.916-55.8-6.38-12.696-13.996-24.971-21.124-36.461-2.97-4.787-5.855-9.437-8.531-13.925l-.001-.001c-2.559-4.268-5.602-9.027-8.881-14.155-7.856-12.286-17.067-26.692-24.231-41.555-10.159-21.078-16.088-42.864-8.283-60.608 6.884-15.643 24.344-23.556 41.213-27.157h.001c11.901-2.546 24.07-3.602 36.291-4.595l1.672-.136c11.657-.945 23.351-1.893 34.84-4.09h0c20.022-3.838 33.73-11.352 44.567-22.167 10.82-10.799 18.753-24.866 27.266-41.751 12.81-25.312 33.223-37.18 56.182-40.095 22.987-2.917 48.545 3.142 71.565 13.75z" stroke="#DC0854" stroke-miterlimit="10"/></svg>