<svg width="400" height="200" viewBox="0 0 400 200" fill="none" xmlns="http://www.w3.org/2000/svg"><path d="M208.991 225.555l45.131-168.431m-50.158 168.347l27.464-173.166m-32.175 171.904l8.849-174.367m-13.877 174.282l-8.903-174.073m3.561 175.166L161.912 52.615m23.122 172.833l-45.67-168.776m41.505 170.185L118.225 64.895m58.164 164.549l-79.62-155.15m75.139 157.737L77.355 85.504m90.074 149.113L58.487 99.384M164.126 237.52L40.796 113.58m121.205 127.158L26.009 131.079m132.374 113.739l-146.3-94.747m143.86 99.142L.513 169.694m154.168 84.231L-9.017 191.126m251.111 71.072l171.425-27.286m-172.833 23.122l168.776-45.67m-170.185 41.505l163.14-62.329M236.69 249.389l156.326-79.304m-157.735 75.139l145.348-94.869m-147.935 90.389l135.233-108.942M228.614 237.126l123.94-123.33M225.396 235.001L335.055 99.008M221.316 231.383l94.747-146.3m-99.143 143.86l79.52-155.43m-83.054 154.483l61.621-164.013" stroke="#A6B4BF" stroke-width="1.198"/></svg>