<svg width="527" height="480" viewBox="0 0 527 480" fill="none" xmlns="http://www.w3.org/2000/svg"><g clip-path="url(#clip0_1002:884)"><path d="M295.823 184.047l-.001.003c-1.094 2.506-2.466 3.83-3.926 4.448-1.469.623-3.11.567-4.803.145-1.694-.423-3.392-1.199-4.949-1.96-.258-.126-.514-.252-.765-.377-1.237-.612-2.386-1.181-3.291-1.44h0l-.007-.002c-3.064-.83-5.27-2.869-7.546-4.972l-.187-.172c-2.312-2.136-4.727-4.309-8.147-4.916h0l-.009-.001c-2.734-.433-4.965-2.441-6.133-5.388-.169-.689-.346-1.452-.23-2.277.198-1.179.949-2.221 1.907-2.979.96-.76 2.059-1.18 2.876-1.19.826.045 1.585.333 2.409.687l.318.138c.72.314 1.503.656 2.356.831h.004c1.464.289 3.079.028 4.696-.432 1.272-.361 2.591-.861 3.878-1.348.35-.132.698-.264 1.042-.392 1.628-.604 3.172-1.124 4.56-1.305 1.383-.18 2.543-.016 3.463.67h0l.01.007c1.274.903 1.89 2.624 2.445 4.655.076.277.151.56.226.846.192.727.388 1.47.615 2.169.317.978.708 1.923 1.272 2.706h.001c.829 1.145 1.945 1.852 3.056 2.452.29.156.577.304.86.45.827.427 1.617.835 2.341 1.379l.009.007.011.007c1.88 1.274 3.137 4.169 1.639 7.551z" stroke="#FF8F2A" stroke-miterlimit="10"/><mask id="path-2-inside-1_1002:884" fill="#fff"><path d="M290.988 154.395c-1.157-1.732-2.575-3.034-4.688-3.433-4.507-.821-10.503 2.754-14.959 4.761-3.807 1.665-7.81 3.652-11.587 3.569-.734-.004-1.402-.115-2.178-.292-2.609-.552-4.78-2.311-7.739-2.045-3.346.178-8.589 4.209-9.779 9.081-.065.108-.065.108-.023.281-.31 1.725-.145 3.15.259 4.426 1.315 4.625 4.298 8.201 8.717 9.41.495.154.818.349 1.183.718 2.387 1.89 3.467 5.931 5.984 7.606 5.249 3.479 11.85 4.245 17.641 7.317 2.971 1.655 6.59 2.968 10.402 4.692 2.175 1.025 3.794 5.393 6.23 5.988 5.26 1.278 11.002-3.334 14.823-7.934 1.26-1.591 2.37-3.421 3.33-5.488 2.88-6.202 1.767-12.617-3.117-15.728-3.378-2.197-6.89-3.444-8.946-6.606-.965-1.321-1.561-3.008-2.026-4.909-1.123-4.215-1.62-8.49-3.527-11.414z"/></mask><path d="M290.988 154.395l.838-.546-.006-.009-.832.555zm-4.688-3.433l.185-.983-.006-.001-.179.984zm-14.959 4.761l.4.916.01-.004-.41-.912zm-11.587 3.569l.022-1h-.017l-.005 1zm-2.178-.292l.221-.975-.007-.002-.007-.001-.207.978zm-7.739-2.045l.053.998.019-.001.018-.001-.09-.996zm-9.779 9.081l.855.519.08-.132.037-.149-.972-.238zm-.023.281l.984.177.038-.209-.05-.206-.972.238zm.259 4.426l.962-.274-.004-.014-.005-.014-.953.302zm8.717 9.41l.295-.955-.016-.005-.016-.004-.263.964zm1.183.718l-.711.704.043.043.047.037.621-.784zm5.984 7.606l-.554.832.002.001.552-.833zm17.641 7.317l.487-.873-.009-.005-.009-.005-.469.883zm10.402 4.692l.426-.905-.007-.003-.007-.003-.412.911zm6.23 5.988l-.238.971.001.001.237-.972zm14.823-7.934l.77.639.007-.009.007-.01-.784-.62zm3.33-5.488l-.907-.421.907.421zm-3.117-15.728l-.545.838.008.005.537-.843zm-8.946-6.606l.838-.545-.014-.023-.016-.021-.808.589zm-2.026-4.909l.971-.238-.002-.01-.003-.01-.966.258zm-2.695-11.969c-1.24-1.857-2.86-3.394-5.335-3.861l-.371 1.966c1.752.33 2.969 1.398 4.043 3.006l1.663-1.111zm-5.341-3.862c-2.547-.464-5.399.321-8.047 1.375-2.631 1.046-5.377 2.501-7.502 3.458l.821 1.824c2.331-1.05 4.811-2.386 7.42-3.424 2.59-1.03 4.99-1.622 6.95-1.265l.358-1.968zm-15.539 4.829c-1.936.846-3.835 1.735-5.74 2.414-1.897.676-3.71 1.109-5.424 1.071l-.044 1.999c2.063.046 4.14-.474 6.14-1.186 1.992-.71 3.998-1.648 5.869-2.466l-.801-1.832zm-11.181 3.485c-.63-.003-1.218-.098-1.962-.267l-.443 1.95c.809.184 1.558.312 2.395.317l.01-2zm-1.976-.27c-1.201-.254-2.244-.769-3.587-1.285-1.287-.494-2.741-.932-4.448-.778l.179 1.992c1.251-.113 2.362.196 3.552.653 1.134.436 2.482 1.076 3.89 1.375l.414-1.957zm-7.999-2.066c-1.984.106-4.337 1.31-6.303 3.026-1.985 1.733-3.737 4.128-4.394 6.817l1.943.475c.533-2.183 1.997-4.241 3.767-5.785 1.79-1.563 3.731-2.463 5.093-2.536l-.106-1.997zm-10.581 9.562c-.006.011-.049.079-.084.152a1.143 1.143 0 00-.09.731c.011.058.027.121.035.154l1.943-.476-.013-.05a.876.876 0 01-.07.503c-.018.038-.037.066-.011.023l-1.71-1.037zm-.152.622c-.341 1.895-.16 3.485.29 4.905l1.906-.604c-.358-1.132-.508-2.392-.228-3.947l-1.968-.354zm.281 4.876c1.386 4.874 4.578 8.778 9.415 10.102l.527-1.929c-4.001-1.095-6.773-4.343-8.018-8.72l-1.924.547zm9.383 10.092c.339.105.519.215.768.467l1.422-1.407a3.574 3.574 0 00-1.599-.97l-.591 1.91zm.858.547c1.021.808 1.792 2.106 2.709 3.618.861 1.419 1.867 3.055 3.342 4.036l1.108-1.665c-1.041-.693-1.834-1.915-2.74-3.408-.849-1.399-1.812-3.068-3.177-4.149l-1.242 1.568zm6.053 7.655c2.747 1.821 5.825 2.917 8.853 3.927 3.064 1.022 6.067 1.953 8.872 3.441l.937-1.767c-2.987-1.584-6.18-2.572-9.176-3.571-3.032-1.012-5.879-2.038-8.381-3.697l-1.105 1.667zm17.706 7.358c3.014 1.679 6.771 3.053 10.477 4.729l.824-1.822c-3.917-1.772-7.4-3.023-10.327-4.654l-.974 1.747zm10.462 4.723c.357.168.757.51 1.225 1.04.464.527.914 1.144 1.422 1.814.49.647 1.03 1.338 1.62 1.907.588.566 1.299 1.085 2.152 1.293l.475-1.943c-.365-.089-.77-.339-1.239-.791-.466-.449-.923-1.026-1.414-1.674-.473-.624-.988-1.329-1.515-1.927-.524-.596-1.142-1.184-1.873-1.529l-.853 1.81zm6.42 6.055c2.993.727 6.024-.244 8.709-1.881 2.695-1.644 5.166-4.034 7.121-6.386l-1.539-1.278c-1.867 2.247-4.177 4.464-6.624 5.956-2.457 1.499-4.927 2.196-7.194 1.645l-.473 1.944zm15.844-8.286c1.314-1.659 2.464-3.557 3.453-5.687l-1.814-.842c-.931 2.005-2.001 3.765-3.207 5.288l1.568 1.241zm3.453-5.687c3.015-6.494 1.955-13.527-3.487-16.993l-1.074 1.687c4.326 2.756 5.491 8.555 2.747 14.464l1.814.842zm-3.479-16.987a49.978 49.978 0 00-2.584-1.546c-.845-.48-1.641-.927-2.396-1.403-1.503-.947-2.758-1.957-3.673-3.364l-1.676 1.091c1.141 1.754 2.67 2.949 4.282 3.965.803.506 1.646.979 2.474 1.45.837.475 1.666.952 2.483 1.483l1.09-1.676zm-8.683-6.357c-.849-1.163-1.407-2.697-1.863-4.558l-1.942.476c.475 1.942 1.109 3.781 2.189 5.261l1.616-1.179zm-1.868-4.578a82.74 82.74 0 01-.747-3.112c-.233-1.034-.464-2.071-.72-3.07-.51-1.987-1.143-3.917-2.188-5.52l-1.675 1.093c.861 1.32 1.429 2.989 1.926 4.924.247.963.47 1.968.706 3.013.234 1.038.479 2.113.766 3.187l1.932-.515z" fill="#FF8F2A" mask="url(#path-2-inside-1_1002:884)"/><path d="M238.101 186.488c1.018 1.304 1.672 3.339 2.33 5.387.895 2.784 1.797 5.592 3.632 6.621l-5.565-12.312m-.397.304l.399-.301-.002-.003m-.397.304c-.407-.542-.88-.976-1.483-1.195l1.483 1.195zm.397-.304c.647.83 1.141 1.91 1.568 3.052.299.798.574 1.654.846 2.5.117.365.234.728.351 1.083.395 1.194.805 2.316 1.303 3.244.5.93 1.064 1.617 1.742 1.997l.002.001c3.548 2.015 7.739 2.721 12.046 3.447l.499.084c4.442.751 8.981 1.577 12.781 4.033 2.297 1.467 4.796 2.621 7.442 3.731.913.383 1.846.762 2.794 1.147 1.788.726 3.63 1.473 5.484 2.309l.005.003h0c.906.42 1.671 1.304 2.349 2.305.611.903 1.194 1.97 1.764 3.015l.205.374c.644 1.175 1.276 2.295 1.945 3.173.676.886 1.33 1.442 1.989 1.609 3.716.863 7.711-.779 11.533-3.563 3.808-2.774 7.341-6.609 10.089-9.931l.004-.004h0c2.021-2.38 3.654-5.303 5.198-8.332 4.101-8.677 3.191-17.856-4.347-22.713-1.108-.708-2.222-1.349-3.322-1.983l-.064-.037c-1.118-.644-2.223-1.282-3.272-1.964-2.1-1.368-4.004-2.935-5.408-5.165l-.007-.011h0a21.685 21.685 0 01-2.573-6.679c-.399-1.753-.713-3.543-1.02-5.29-.172-.981-.342-1.949-.523-2.888-.509-2.638-1.113-5.092-2.12-7.207-1.28-2.657-2.974-4.901-5.913-5.722l-.007-.002c-3.13-.924-6.91.017-10.755 1.642-2.541 1.074-5.033 2.41-7.328 3.641-1.18.632-2.308 1.237-3.365 1.765l-.004.001c-.509.25-1.025.506-1.549.765-4.818 2.387-10.225 5.065-15.457 5.418-1.128.084-2.289-.012-3.256-.149l-.012-.001v-.001c-1.633-.271-3.118-.851-4.535-1.405-.377-.147-.75-.293-1.12-.43-1.779-.661-3.541-1.162-5.618-.958l-.013.002v-.001c-2.227.161-5.208 1.704-7.877 4.129-2.631 2.391-4.875 5.566-5.744 8.92l.028.018-.073.347c-.533 2.517-.316 4.489.136 6.336 1.602 6.176 5.365 11.278 11.433 12.973l.018.005.018.006c.727.264 1.271.778 1.71 1.361z" stroke="#FF8F2A" stroke-miterlimit="10"/><path d="M326.097 221.478c2.758-3.332 5.108-7.205 7.028-11.34 5.452-11.412 5.106-24.429-5.892-30.807-.782-.456-1.556-.896-2.318-1.33-5.062-2.879-9.578-5.448-12.388-10.096-1.392-2.316-2.415-4.998-3.046-8.325m16.616 61.898l-.385-.319m.385.319l-.385-.319s0 0 0 0m.385.319c-7.143 8.62-18.95 21.77-29.362 19.28-2.302-.545-3.98-4.133-5.64-7.681-1.495-3.198-2.976-6.363-4.884-7.242-2.563-1.159-5.095-2.15-7.569-3.118-4.886-1.911-9.546-3.734-13.773-6.592-4.951-3.398-11.282-3.964-17.594-4.529-5.479-.49-10.944-.979-15.476-3.318l77.682-48.698m16.231 61.579c2.726-3.294 5.054-7.129 6.959-11.232l.003-.005h0c2.695-5.642 3.941-11.649 3.179-17.005-.76-5.339-3.515-10.048-8.87-13.154h-.001c-.775-.451-1.544-.889-2.305-1.321-5.053-2.872-9.696-5.511-12.578-10.278l-.001-.002c-1.424-2.37-2.465-5.105-3.106-8.479m16.72 61.476c-3.57 4.307-8.278 9.714-13.38 13.732-5.123 4.037-10.513 6.569-15.481 5.381l-.001-.001c-.9-.213-1.762-1.018-2.625-2.3-.852-1.266-1.638-2.89-2.431-4.58l-.247-.527c-.704-1.507-1.418-3.034-2.178-4.316-.839-1.414-1.793-2.635-2.949-3.167l-.003-.002c-2.574-1.164-5.128-2.163-7.609-3.134-1.203-.47-2.388-.934-3.551-1.407-3.575-1.454-6.966-3.004-10.106-5.126-4.747-3.258-10.706-3.964-16.583-4.501l-1.224-.111c-5.506-.493-10.873-.974-15.313-3.265-.822-.438-1.463-1.323-1.988-2.579-.522-1.249-.898-2.79-1.239-4.438-.12-.583-.237-1.182-.354-1.784a84.719 84.719 0 00-.659-3.182c-.374-1.59-.83-3.088-1.501-4.237l-.012-.02-.013-.019-.012-.017c-.27-.378-.567-.794-.9-1.135-.337-.347-.748-.658-1.262-.778-7.82-2.179-12.419-8.805-14.381-16.823-.577-2.356-.895-5.103-.037-8.404a.806.806 0 00.053-.174 1.32 1.32 0 00.018-.149l.001-.006.002-.022.006-.011.018-.064c1.275-4.468 4.32-8.727 7.824-11.958 3.515-3.241 7.412-5.375 10.337-5.699l.004-.001c2.817-.338 5.167.336 7.514 1.214.449.168.901.344 1.357.522 1.9.744 3.874 1.515 6.072 1.812l.013.002.013.001.023.002c1.385.114 2.825.232 4.296.062 3.858-.291 7.721-1.614 11.446-3.274 2.534-1.129 5.033-2.428 7.431-3.674a266.68 266.68 0 013.292-1.693h.001c1.369-.687 2.852-1.494 4.417-2.345 2.976-1.618 6.247-3.397 9.589-4.822 5.098-2.172 10.164-3.424 14.318-2.031 3.683 1.262 5.858 4.655 7.292 8.293 1.099 2.834 1.718 6.003 2.252 9.303.128.795.252 1.599.376 2.407.388 2.525.783 5.091 1.354 7.569m0 0l.002.01.487-.113m-.489.103l-.002-.01.491-.093" stroke="#FF8F2A" stroke-miterlimit="10"/><path d="M336.659 233.185c3.56-4.17 6.391-9.077 8.898-14.18 6.804-14.125 6.734-30.507-7.3-38.433l-1.528-.862c-6.695-3.772-12.474-7.029-16.038-12.887-1.691-2.793-2.841-5.993-3.641-10.011-.728-3.281-1.183-6.643-1.632-9.966-.646-4.774-1.28-9.466-2.698-13.711l23.939 100.05zm0 0l-.02.024c-8.947 10.621-23.698 28.131-36.644 24.983-2.808-.702-4.78-5.368-6.732-9.983-1.781-4.21-3.544-8.379-5.907-9.461l49.303-5.563zm-68.64-99.645l.232.443-.002.001c-1.174.615-2.38 1.264-3.613 1.927-3.049 1.641-6.258 3.367-9.529 4.879-4.595 2.125-9.363 3.853-14.083 4.358-1.818.256-3.606.223-5.423.018-2.866-.284-5.398-1.265-7.849-2.215-.471-.183-.938-.364-1.404-.539-2.919-1.094-5.843-1.969-9.371-1.548h-.003c-3.636.406-8.452 3.084-12.797 7.148-4.334 4.051-8.12 9.408-9.747 15.064l-.018.064-.01.017-.011.071a1.297 1.297 0 01-.127.394c-1.097 4.181-.716 7.551-.013 10.42l.002.008c2.214 9.79 7.759 18.016 17.457 20.74l.013.003h0c1.196.371 1.836 1.319 2.477 2.443l.007.012.007.013c.714 1.441 1.147 3.354 1.475 5.399.204 1.27.372 2.626.539 3.974.102.82.203 1.638.312 2.432.291 2.124.639 4.107 1.193 5.691.559 1.597 1.291 2.681 2.276 3.155l.001.001c5.412 2.622 12.004 2.875 18.734 3.133.623.024 1.248.048 1.873.074 7.305.302 14.652.872 20.307 4.982 4.004 2.865 8.315 4.827 12.807 6.617 1.362.543 2.744 1.071 4.139 1.604 3.19 1.218 6.449 2.463 9.696 3.971 1.399.641 2.538 2.191 3.539 4.02.918 1.68 1.772 3.699 2.617 5.697l.258.611c.937 2.21 1.871 4.351 2.898 6.023 1.04 1.692 2.1 2.777 3.237 3.062 6.226 1.513 12.984-1.934 19.397-7.241 6.384-5.281 12.28-12.279 16.757-17.593l.008-.01.002-.003c3.521-4.123 6.329-8.988 8.828-14.073 3.372-7.001 5.023-14.528 4.118-21.257-.902-6.709-4.344-12.643-11.214-16.523h0c-.522-.296-1.041-.588-1.554-.877-6.665-3.753-12.558-7.072-16.193-13.047v-.001c-1.729-2.853-2.895-6.11-3.703-10.167-.732-3.301-1.19-6.688-1.64-10.009-.097-.724-.195-1.446-.295-2.162-.56-4.017-1.194-7.897-2.379-11.448l-8.666-11.3c-8.892-3.313-21.078 3.506-30.354 8.698-1.872 1.047-3.624 2.028-5.208 2.846zm0 0a381.316 381.316 0 00-3.634 1.938c-7.325 3.941-15.477 8.326-23.422 9.173l27.056-11.111zm-48.226 84.822l-.001.001.001-.001z" stroke="#FF8F2A" stroke-miterlimit="10"/><path d="M267.274 126.617l.002-.001c1.799-.959 3.774-2.093 5.878-3.301 4.452-2.555 9.482-5.442 14.637-7.713 7.593-3.344 15.253-5.248 21.482-2.825 5.465 2.185 8.44 7.66 10.213 13.417 1.271 4.268 1.935 8.831 2.511 13.52.107.877.212 1.76.317 2.646.454 3.832.916 7.722 1.663 11.539.871 4.691 2.272 8.531 4.19 11.792l.002.005c4.482 7.436 11.743 11.472 20.228 16.188l.425.236h.001c8.384 4.653 12.488 11.797 13.514 19.848 1.028 8.073-1.039 17.077-5.056 25.383-2.977 6.117-6.374 11.952-10.593 16.982l-.002.002-.403.486c-5.194 6.275-12.06 14.57-19.521 20.927-7.682 6.545-15.839 10.9-23.364 9.112-1.376-.359-2.635-1.727-3.849-3.828-1.2-2.077-2.282-4.735-3.363-7.466l-.275-.695c-.984-2.49-1.975-4.998-3.051-7.076-1.164-2.246-2.489-4.122-4.128-4.87l-.002-.001c-3.77-1.7-7.542-3.105-11.233-4.479a329.974 329.974 0 01-5.525-2.096c-5.421-2.134-10.612-4.52-15.431-8.099l-.002-.002c-6.568-4.813-15.267-5.232-23.978-5.305-.796-.006-1.591-.01-2.386-.014-7.978-.037-15.839-.075-22.291-3.002l-.003-.001c-1.156-.514-1.984-1.798-2.578-3.726-.589-1.91-.91-4.326-1.149-6.915a215.78 215.78 0 01-.273-3.328 157.623 157.623 0 00-.387-4.49c-.265-2.493-.646-4.812-1.355-6.548-.582-1.586-1.436-2.65-2.731-3.089l-.013-.004-.013-.004c-11.46-3.205-17.991-13.201-20.523-24.658-.768-3.505-1.211-7.508.131-12.578a.978.978 0 00.053-.147c.017-.057.03-.118.041-.162l.001-.005a1.71 1.71 0 01.027-.114l.002-.007.022-.036.019-.064c1.945-6.788 6.497-13.226 11.683-18.105 5.198-4.891 10.952-8.141 15.247-8.662 4.326-.524 7.87.543 11.369 1.861.551.207 1.102.422 1.655.637 2.941 1.145 5.953 2.317 9.375 2.622 2.113.23 4.243.174 6.32-.056h.002c5.696-.651 11.393-2.814 16.865-5.441 3.554-1.706 7.043-3.624 10.381-5.458a345.084 345.084 0 015.222-2.832z" stroke="#FF8F2A" stroke-miterlimit="10"/><path d="M195.152 129.532h-.004c-5.006.604-11.695 4.425-17.746 10.144-6.038 5.706-11.357 13.226-13.675 21.115l-.018.062-.034.056a.477.477 0 00-.049.153l-.003.01a1.43 1.43 0 01-.127.37c-1.581 5.947-1.077 10.575-.246 14.708 2.891 13.295 10.257 24.819 23.477 28.508 1.528.399 2.461 1.877 3.066 3.588v.001l-.471.167 5.83-78.882zm0 0c4.983-.639 9.092.587 13.168 2.108.634.237 1.269.481 1.907.727 3.439 1.324 6.966 2.683 10.986 3.037 2.395.253 4.98.178 7.408-.138 6.611-.83 13.225-3.355 19.573-6.425 4.507-2.18 8.906-4.648 13.082-6.991 1.7-.955 3.364-1.888 4.983-2.773m-71.107 10.455l136.626 21.201m-79.902 95.641l.001.001c5.632 4.292 11.746 7.092 18.099 9.57 2.032.793 4.094 1.554 6.173 2.322 4.398 1.624 8.871 3.275 13.297 5.31m-37.57-17.203l37.362 17.657m-37.362-17.657c-7.468-5.658-17.571-5.959-27.725-5.805-1.02.016-2.041.036-3.061.056-4.082.081-8.145.161-12.061-.061-4.889-.278-9.506-1.026-13.584-2.814l56.431 8.624zm37.57 17.203h.001l-.209.454m.208-.454v-.001l-.208.455m.208-.454c.951.433 1.796 1.206 2.561 2.184.767.981 1.475 2.194 2.144 3.545 1.208 2.439 2.315 5.384 3.418 8.316l.35.932c1.226 3.25 2.458 6.417 3.843 8.879 1.401 2.489 2.877 4.108 4.522 4.491l.004.001c4.389 1.058 8.975.272 13.604-1.769 4.631-2.041 9.275-5.327 13.754-9.222 8.359-7.269 16.072-16.598 21.986-23.75l1.25-1.51c4.916-5.934 8.966-12.848 12.467-19.827m-80.111 28.184c3.241 1.476 5.538 7.586 7.864 13.77 2.558 6.804 5.15 13.698 9.069 14.61 17.498 4.216 37.596-20.091 49.843-34.904l1.253-1.514c4.95-5.976 9.021-12.927 12.53-19.925m-.448-.221l-.002.003.45.218m-.448-.221l.001-.003.447.224m-.448-.221c4.659-9.61 7.143-20.09 5.999-29.52-1.141-9.408-5.892-17.788-15.76-23.269m10.209 53.01c9.376-19.335 10.073-42.319-9.967-53.447-10.052-5.51-18.318-10.083-23.326-18.569m0 0l-.43.255m.43-.255c-2.184-3.68-3.802-8.048-4.726-13.319m4.726 13.319l-.431.254.001.001m23.514 18.751l.002.002.24-.438-.242.436zm0 0c-10.026-5.495-18.424-10.128-23.514-18.751m0 0c-2.217-3.737-3.855-8.162-4.788-13.485m.492-.089l-.492.091v-.002m.492-.089l-.492.087v.002m0 0c-.814-4.417-1.259-8.941-1.699-13.412-.09-.923-.181-1.844-.275-2.761-.547-5.373-1.198-10.626-2.585-15.552-1.924-6.738-5.2-13.411-11.692-16.071-7.226-2.953-16.179-.734-25.02 3.179-6.059 2.682-11.969 6.112-17.151 9.119-2.373 1.377-4.593 2.666-6.605 3.753m0 0h-.001l-.238-.439.24.438-.001.001z" stroke="#FF8F2A" stroke-miterlimit="10"/><path d="M320.844 93.45l-.005-.002c-8.277-3.515-18.495-.965-28.564 3.546-6.792 3.043-13.416 6.929-19.248 10.35-2.811 1.648-5.438 3.189-7.811 4.476m55.628-18.37l-55.867 17.93m55.867-17.93c7.306 3.006 11.054 10.84 13.125 18.552L320.844 93.45zm-55.628 18.37h-.001l-.238-.44m.239.44l.001-.001-.24-.439m.239.44c-1.988 1.085-4.034 2.238-6.129 3.418-4.608 2.596-9.449 5.323-14.406 7.751-7.219 3.535-14.74 6.465-22.268 7.475m42.564-19.084c-2 1.092-4.053 2.249-6.151 3.432-11.302 6.367-23.913 13.472-36.482 15.157m.069.495h.003l-.072-.495m.069.495c-2.784.403-5.649.453-8.485.221-4.572-.374-8.575-1.92-12.492-3.433-.725-.28-1.447-.559-2.169-.829-4.644-1.736-9.343-3.137-15.071-2.363l-.007.001c-5.717.686-13.342 5.078-20.232 11.633-6.864 6.53-12.915 15.13-15.558 24.135m74.014-29.365l-.003.001-.066-.496m0 0l-73.945 29.86m0 0l-.013.044-.48-.141.499.041-.006.056zm29.411 54.103l-.473.164.48-.14-.003-.012a.056.056 0 01-.004-.012zm-29.912-36.497v-.002l-.001-.002-.489.105.49-.101zm51.149 73.447c-5.581-.222-10.855-.994-15.508-2.984l155.873-100.041-.492.09v.002c1.101 6.006 2.864 10.95 5.382 15.167 5.625 9.684 14.992 14.905 26.309 21.184l.004.002c11.416 6.2 16.856 15.807 18.139 26.588 1.285 10.804-1.606 22.806-6.909 33.72l-.001.001c-3.936 8.181-8.573 16.061-14.29 22.832l-.001.001c-.833.993-1.701 2.035-2.601 3.116-6.592 7.916-14.931 17.929-23.93 25.875-5.113 4.514-10.418 8.342-15.715 10.736-5.294 2.393-10.549 3.341-15.588 2.145h-.002c-.905-.21-1.773-.778-2.617-1.674-.845-.896-1.643-2.095-2.412-3.522-1.538-2.856-2.911-6.536-4.281-10.308l-.326-.897c-1.256-3.464-2.52-6.949-3.907-9.822-.754-1.563-1.553-2.963-2.418-4.09-.864-1.124-1.815-2.005-2.884-2.491-5.113-2.347-10.272-4.224-15.342-6.068a402.628 402.628 0 01-7.031-2.606c-7.292-2.809-14.302-6.007-20.749-11.012l-.002-.002c-8.398-6.446-19.874-6.615-31.449-6.238-1.188.038-2.377.083-3.564.127-4.63.173-9.242.346-13.688.169z" stroke="#FF8F2A" stroke-miterlimit="10"/><path d="M341.145 105.014l.001.003c1.587 6.301 2.297 12.918 2.903 19.651.085.948.168 1.898.252 2.85.508 5.798 1.021 11.66 2.035 17.416 1.098 6.748 3.097 12.277 5.807 16.903l.001.002c6.33 10.699 16.702 16.678 29.277 23.573l.001.001c12.901 7.027 18.987 17.872 20.386 30.01 1.4 12.162-1.908 25.64-7.855 37.858l-.001.003c-4.416 9.213-9.64 18.062-16.054 25.737-1.04 1.243-2.129 2.557-3.264 3.926-7.354 8.868-16.616 20.039-26.601 28.951-5.761 5.143-11.741 9.513-17.709 12.251-5.965 2.738-11.887 3.831-17.56 2.471-1.027-.247-2.006-.906-2.954-1.935-.947-1.03-1.839-2.405-2.694-4.035-1.711-3.262-3.231-7.459-4.746-11.75l-.345-.981c-1.394-3.956-2.795-7.931-4.338-11.202-.836-1.772-1.722-3.356-2.684-4.628-.959-1.268-2.015-2.256-3.202-2.795-5.619-2.568-11.316-4.631-16.932-6.665-2.75-.997-5.481-1.986-8.174-3.024-8.215-3.166-16.134-6.805-23.396-12.526h-.001c-9.24-7.255-22.074-7.319-35.07-6.72-1.417.065-2.835.138-4.253.211-5.116.264-10.216.527-15.135.411-6.276-.149-12.207-.916-17.424-3.067h0c-1.638-.674-2.703-2.597-3.357-5.537-.647-2.906-.852-6.625-.924-10.614-.03-1.645-.037-3.343-.044-5.043-.01-2.389-.019-4.783-.093-7.041-.125-3.872-.437-7.452-1.278-10.117l-.001-.005c-.724-2.207-1.735-4.061-3.671-4.553-16.967-4.786-26.152-19.619-29.61-36.347-1.023-5.297-1.692-11.364.431-18.931l.013-.046.004-.048a1.36 1.36 0 01.068-.281l.004-.013c.033-.106.079-.254.099-.425 3.048-10.159 9.876-19.796 17.588-27.119 7.737-7.345 16.285-12.286 22.698-13.14 6.407-.804 11.683.799 16.896 2.752.765.286 1.529.581 2.296.876 4.441 1.712 8.969 3.457 14.142 3.856 3.133.257 6.237.052 9.452-.366l.005-.001c8.447-1.189 16.894-4.552 24.987-8.588 5.532-2.759 10.926-5.846 16.046-8.778 2.363-1.352 4.667-2.671 6.9-3.909 2.53-1.395 5.329-3.052 8.326-4.825 6.627-3.922 14.22-8.417 22.007-11.913 11.315-5.08 22.828-7.945 32.137-3.953 8.281 3.591 12.458 12.427 14.608 21.209z" stroke="#FF8F2A" stroke-miterlimit="10"/><path d="M348.388 97.924v-.001c-2.296-9.756-6.944-19.755-16.04-23.694l-.002-.001c-10.363-4.557-23.171-1.375-35.719 4.282-8.64 3.895-17.056 8.911-24.375 13.274-3.304 1.97-6.385 3.806-9.161 5.346h-.001a608.456 608.456 0 00-8.029 4.552c-5.558 3.186-11.4 6.535-17.389 9.542-8.964 4.501-18.319 8.27-27.684 9.638l-.002.001c-3.577.505-7.063.618-10.521.449l-.013-.001h0c-5.72-.419-10.722-2.351-15.64-4.25-.855-.33-1.707-.659-2.56-.979-5.781-2.169-11.65-3.948-18.803-3.007-7.124.936-16.608 6.449-25.175 14.616-8.543 8.145-16.094 18.854-19.428 30.09a2.29 2.29 0 01-.135.492l-.008.021a1.4 1.4 0 00-.092.313l-.004.047-.013.047c-2.367 8.454-1.699 15.257-.55 21.067 3.816 18.568 13.946 35.001 32.573 40.205 2.031.556 3.26 2.517 3.972 5.045.869 2.977 1.15 6.969 1.223 11.289.043 2.496.016 5.137-.011 7.775-.02 1.92-.04 3.838-.032 5.697.017 4.443.186 8.586.855 11.821.677 3.27 1.825 5.417 3.634 6.16 5.792 2.354 12.379 3.143 19.347 3.236 5.451.072 11.104-.282 16.772-.636 1.582-.099 3.165-.198 4.745-.288 14.417-.82 28.622-.888 38.79 7.152l.001.001c8.132 6.469 16.949 10.505 26.089 13.994 2.97 1.134 5.98 2.212 9.013 3.297 6.277 2.248 12.648 4.529 18.954 7.41h.001l-.208.455c4.602 2.086 7.766 11.243 10.953 20.467 3.448 9.983 6.924 20.044 12.28 21.304l32.393-246.228zm0 0c1.672 7.015 2.394 14.34 3.024 21.733.07.814.138 1.63.206 2.445.551 6.578 1.104 13.188 2.268 19.614 1.266 7.433 3.39 13.48 6.401 18.585 6.865 11.761 18.137 18.434 32.074 26.008 14.44 7.888 21.216 19.961 22.751 33.45 1.537 13.513-2.188 28.468-8.811 42.043-5.004 10.183-10.817 20.002-17.927 28.582l-39.986-192.46z" stroke="#FF8F2A" stroke-miterlimit="10"/><path d="M355.631 90.832l-.001-.003c-2.376-10.828-7.452-21.827-17.521-26.352-11.361-5.087-25.479-1.563-39.304 4.681-9.417 4.253-18.594 9.715-26.581 14.469-3.735 2.222-7.209 4.29-10.327 6.008a675.134 675.134 0 00-8.648 4.957c-6.117 3.546-12.564 7.282-19.186 10.632-9.843 4.98-20.134 9.139-30.44 10.6-3.915.589-7.754.789-11.554.422-6.286-.443-11.786-2.553-17.205-4.632-.926-.355-1.849-.709-2.773-1.054-6.359-2.372-12.82-4.326-20.686-3.303-7.836 1.02-18.256 7.104-27.675 16.099-9.401 8.978-17.725 20.779-21.426 33.125a4.498 4.498 0 01-.165.533l-.002.006c-.055.151-.1.275-.136.436l-.003.012-.003.011c-2.609 9.34-1.879 16.77-.603 23.096 4.132 20.235 15.139 38.377 35.642 44.128l.013.003c2.239.694 3.505 2.826 4.3 5.695 0 0 0 0 0 0l-.482.134c1.413 5.034 1.25 12.929 1.085 20.866-.253 12.205-.507 24.51 4.962 26.669L355.631 90.832zm0 0c1.755 7.728 2.463 15.743 3.092 23.837l.16 2.072c.569 7.402 1.142 14.853 2.463 22.142 1.436 8.124 3.794 14.754 6.995 20.267 7.334 12.932 19.578 20.194 34.872 28.443h0c15.935 8.575 23.374 21.859 25.036 36.713 1.666 14.88-2.465 31.355-9.732 46.233h0c-5.42 11.112-11.712 21.963-19.688 31.486h-.001a1160.973 1160.973 0 00-4.801 5.798c-8.778 10.645-19.735 23.934-31.539 34.655-7.031 6.387-14.341 11.841-21.643 15.276-7.299 3.434-14.558 4.835-21.516 3.173-1.28-.309-2.489-1.14-3.647-2.426-1.157-1.287-2.24-3.003-3.273-5.031-2.065-4.059-3.885-9.279-5.693-14.604l-.416-1.228c-1.663-4.907-3.33-9.828-5.175-13.869-1.001-2.191-2.062-4.142-3.216-5.702-1.15-1.557-2.416-2.757-3.837-3.401l61.559-223.834z" stroke="#FF8F2A" stroke-miterlimit="10"/><path d="M362.874 83.74v.001c1.838 8.442 2.56 17.165 3.18 25.969l.188 2.704c.547 7.906 1.098 15.861 2.391 23.671v.003c1.497 8.751 3.983 15.902 7.486 21.895 8.148 14.011 21.249 21.794 37.835 30.828l.001.001c17.474 9.435 25.587 23.974 27.378 40.193 1.794 16.246-2.754 34.197-10.665 50.378v.001c-5.898 12.142-12.885 23.898-21.559 34.326-1.709 2.047-3.524 4.255-5.433 6.576-9.543 11.604-21.437 26.068-34.24 37.762-7.68 7.015-15.664 13.012-23.637 16.792-7.971 3.778-15.897 5.325-23.489 3.499-1.404-.348-2.725-1.268-3.987-2.686s-2.44-3.306-3.561-5.533c-2.243-4.456-4.215-10.183-6.172-16.021l-.47-1.405c-1.793-5.362-3.589-10.733-5.575-15.149-1.081-2.403-2.227-4.542-3.471-6.254-1.242-1.708-2.606-3.024-4.134-3.734l-.004-.001c-7.503-3.417-15.102-6.112-22.6-8.772-3.7-1.312-7.375-2.615-11.002-3.992-11.003-4.178-21.627-9.054-31.391-16.953h0c-11.936-9.633-28.865-9.33-46.125-8.066-1.967.144-3.938.301-5.909.458-6.711.533-13.411 1.065-19.872 1.094-8.354.037-16.255-.77-23.187-3.485-2.166-.856-3.485-3.455-4.209-7.408-.715-3.91-.81-8.936-.715-14.324.04-2.275.115-4.622.19-6.97.1-3.179.201-6.359.218-9.368.028-5.236-.197-10.058-1.142-13.634-.771-3.148-2.186-5.539-4.619-6.186-22.375-6.301-34.323-26.043-38.706-48.045-1.335-6.941-2.126-14.98.704-25.174.213-.378.31-.805.388-1.151l.004-.017c4.02-13.478 13.109-26.359 23.362-36.164 10.271-9.822 21.627-16.479 30.123-17.614h0c8.611-1.159 15.638.955 22.55 3.534 1.019.38 2.037.771 3.058 1.163 5.88 2.259 11.853 4.554 18.722 5.044 4.255.348 8.439.063 12.627-.502l.008-.001c11.255-1.694 22.471-6.286 33.192-11.744 7.072-3.6 13.956-7.591 20.5-11.386 3.369-1.954 6.648-3.855 9.816-5.624 3.277-1.825 6.924-4.009 10.845-6.355 8.779-5.254 18.925-11.327 29.338-16.033 15.072-6.813 30.486-10.655 42.881-5.088h.001c10.882 4.873 16.363 17.14 18.888 28.946z" stroke="#FF8F2A" stroke-miterlimit="10"/><path d="M370.118 76.65h-.001c-2.67-12.779-8.515-26.146-20.429-31.498h-.003c-13.448-6.132-30.158-1.974-46.462 5.415-11.269 5.107-22.239 11.703-31.711 17.399-4.226 2.541-8.154 4.903-11.677 6.873m110.283 1.812l-110.527-2.248m110.527 2.248c1.921 9.155 2.672 18.56 3.342 28.04l.152 2.16c.614 8.76 1.232 17.573 2.72 26.253v.003c1.667 9.444 4.345 17.002 8.079 23.574l.002.003c8.682 15.072 22.685 23.55 40.631 33.262l.002.001c19.023 10.155 27.798 25.905 29.704 43.481 1.909 17.603-3.073 37.058-11.627 54.542l-.001.002c-6.444 13.285-13.911 26.073-23.385 37.336l.383.322-.383-.322c-2.073 2.466-4.288 5.152-6.628 7.989-10.215 12.385-22.807 27.652-36.338 40.078-8.313 7.634-16.958 14.173-25.596 18.305-8.637 4.132-17.233 5.842-25.477 3.877m44.42-318.906l-44.42 318.906M259.835 74.839l-.244-.436m.244.436h.002l-.246-.436m.244.436c-3.362 1.894-6.845 3.93-10.425 6.025-7.106 4.155-14.599 8.537-22.306 12.481-11.601 5.937-23.753 10.918-35.949 12.705h-.002c-4.542.651-9.001.912-13.592.65l-.006-.001c-7.435-.511-13.926-2.995-20.32-5.442-1.098-.42-2.193-.839-3.289-1.246-7.503-2.79-15.121-5.08-24.39-3.805-9.242 1.27-21.519 8.475-32.624 19.096-11.088 10.605-20.928 24.54-25.353 39.172m188.012-80.071c-3.377 1.902-6.867 3.943-10.452 6.04-17.781 10.399-37.888 22.158-58.057 25.112-4.514.647-8.94.905-13.493.645-7.354-.505-13.768-2.959-20.164-5.406-8.597-3.288-17.162-6.565-27.937-5.083-18.79 2.583-49.484 29.152-58.392 58.635m.483.128l.004-.017-.487-.111m.483.128l-.005.016-.478-.144m.483.128l-.003.015c-.079.346-.176.773-.388 1.151m-.093-1.294c-.088.388-.176.776-.372 1.099m0 0l.482.132-.017.063m-.465-.195l.428.259.037-.064m-.465-.195l-.25 27.569m.715-27.374c-3.008 10.973-2.219 19.745-.715 27.374m0 0v-.002l-.49.099.49-.097s0 0 0 0zm0 0c4.806 23.736 17.526 45.122 41.777 51.97l.006.002c2.644.783 3.99 3.282 4.907 6.651l.002.01c.975 3.888 1.177 9.13 1.105 14.822-.041 3.266-.173 6.716-.306 10.164a557.806 557.806 0 00-.256 7.577c-.144 5.846-.082 11.299.651 15.535.366 2.118.896 3.902 1.632 5.269.733 1.362 1.657 2.284 2.808 2.738M70.473 183.014l46.207 58.755c1.508 6.011 1.147 15.403.785 24.831-.558 14.532-1.119 29.152 5.152 31.617m.182-.465v-.001l-.182.466m.182-.465h.001l-.183.465m.182-.465c7.507 2.917 16.07 3.74 25.121 3.639 6.983-.079 14.225-.706 21.476-1.334 2.151-.187 4.303-.373 6.449-.545 9.364-.751 18.61-1.23 27.108-.22 8.503 1.011 16.289 3.516 22.711 8.758m-103.047-9.833c13.453 5.229 30.177 3.78 46.835 2.337 20.953-1.816 41.8-3.622 55.896 7.883m0 0l.316-.387s0 0 0 0m-.316.387l.316-.387m-.316.387l100.35 87.12M225.664 308.05c10.58 8.614 22.129 13.904 34.077 18.435 3.85 1.46 7.748 2.842 11.668 4.233 8.223 2.918 16.546 5.871 24.739 9.644h.001c1.646.762 3.116 2.185 4.457 4.039 1.343 1.857 2.58 4.182 3.747 6.796 2.15 4.812 4.091 10.668 6.03 16.515l.499 1.505c2.112 6.356 4.24 12.592 6.66 17.436 1.21 2.421 2.481 4.471 3.844 6.008s2.792 2.532 4.312 2.896m0 0s0 0 0 0l-.116.487m.116-.487l-29.759-54.741c5.906 2.735 9.924 14.851 13.971 27.058 4.379 13.208 8.793 26.52 15.672 28.17m.116-.487l-.116.487m.116-.487l-.116.487" stroke="#FF8F2A" stroke-miterlimit="10"/><path d="M377.36 69.558v.003c2.005 9.87 2.769 19.98 3.487 30.172l.088 1.25c.687 9.769 1.379 19.606 3.138 29.311 1.664 10.184 4.685 18.391 8.609 25.369l.001.003c9.217 16.133 24.189 25.2 43.492 35.587h.001c20.454 10.95 29.876 27.938 31.911 46.881 2.037 18.969-3.336 39.916-12.532 58.703-7.033 14.255-15.088 28.012-25.257 40.179l-.001.001a1216.697 1216.697 0 00-6.877 8.353c-11.006 13.441-24.65 30.105-39.327 43.655-8.954 8.266-18.27 15.35-27.578 19.828-9.307 4.477-18.57 6.333-27.449 4.204-1.644-.403-3.184-1.489-4.649-3.16-1.465-1.671-2.83-3.897-4.125-6.521-2.593-5.25-4.868-12.002-7.124-18.878l-.521-1.591c-2.076-6.338-4.154-12.684-6.459-17.892-1.25-2.824-2.574-5.333-4.013-7.335-1.437-1.998-3.011-3.526-4.774-4.34l-.001-.001c-8.82-4.054-17.771-7.203-26.617-10.316-4.218-1.484-8.412-2.96-12.557-4.521-12.86-4.845-25.308-10.534-36.758-19.897-6.885-5.633-15.247-8.312-24.388-9.374-9.136-1.062-19.084-.511-29.162.34-2.369.2-4.744.417-7.119.634-7.745.706-15.48 1.412-22.939 1.539-9.741.166-18.956-.658-27.028-3.736-1.261-.483-2.265-1.479-3.056-2.95-.793-1.476-1.358-3.404-1.741-5.691-.768-4.577-.796-10.473-.596-16.791.085-2.697.213-5.478.34-8.259.169-3.702.338-7.404.409-10.908.124-6.145-.051-11.794-1.073-15.97-.9-3.677-2.464-6.29-5.204-7.138l-.013-.004c-25.91-7.266-39.679-30.319-44.735-55.826v-.002c-1.676-8.333-2.526-17.749.85-29.567l.003-.013.003-.013c.041-.181.099-.391.16-.615l.001-.005c.058-.21.119-.434.165-.635 4.744-15.762 15.35-30.779 27.289-42.21 11.957-11.448 25.17-19.226 35.072-20.612h0c10.013-1.41 18.224 1.054 26.294 4.06 1.185.441 2.368.895 3.553 1.35 6.87 2.633 13.835 5.304 21.817 5.836h.004c4.872.285 9.786.005 14.676-.731l.003-.001c13.092-2.052 26.14-7.482 38.607-13.905 8.116-4.182 16.014-8.801 23.521-13.192 4.013-2.346 7.914-4.628 11.677-6.742h.001c3.682-2.078 7.782-4.553 12.193-7.217 10.26-6.195 22.201-13.406 34.469-18.968 17.551-7.957 35.556-12.433 50.039-5.822 12.67 5.808 19.049 20.238 21.8 34.091z" stroke="#FF8F2A" stroke-miterlimit="10"/><path d="M384.604 62.47v.001c2.088 10.582 2.837 21.384 3.506 32.262l.132 2.15c.62 10.161 1.243 20.378 2.902 30.485v.002c1.833 10.874 4.981 19.601 9.206 27.059l.001.001c9.858 17.259 25.839 27.085 46.395 38.084v.001c22.026 11.756 32.154 29.946 34.333 50.226 2.181 20.308-3.608 42.732-13.481 62.876-7.447 15.18-16.155 30.013-27.02 43.085-2.353 2.822-4.871 5.9-7.532 9.155-11.742 14.355-26.295 32.15-41.948 46.643-9.598 8.888-19.586 16.512-29.565 21.333-9.977 4.82-19.909 6.822-29.423 4.527h-.001c-1.775-.427-3.432-1.596-5.004-3.393-1.571-1.797-3.031-4.194-4.415-7.018-2.768-5.651-5.187-12.923-7.584-20.326l-.567-1.753c-2.2-6.811-4.401-13.626-6.848-19.218-1.329-3.037-2.739-5.734-4.272-7.883-1.531-2.145-3.209-3.781-5.088-4.647l-.001-.001c-9.391-4.308-18.929-7.668-28.362-10.99-4.581-1.613-9.137-3.218-13.639-4.919-13.798-5.211-27.155-11.34-39.421-21.419h0c-7.322-6.009-16.233-8.846-25.99-9.945-9.751-1.099-20.379-.465-31.158.496-2.545.226-5.098.471-7.65.716-8.275.793-16.544 1.586-24.522 1.76-10.434.228-20.315-.605-28.98-3.858-1.333-.51-2.39-1.573-3.22-3.147-.831-1.579-1.417-3.644-1.809-6.094-.785-4.902-.78-11.225-.532-18.002.106-2.894.257-5.879.408-8.864.2-3.971.4-7.943.496-11.706.167-6.6.016-12.666-1.036-17.153v-.005c-.937-3.826-2.581-6.814-5.518-7.619-27.785-7.815-42.495-32.47-47.802-59.746v-.004c-1.802-8.85-2.715-18.89.901-31.59.079-.254.141-.481.2-.7.061-.221.12-.435.194-.673v-.003c5.115-16.869 16.463-32.989 29.231-45.268 12.782-12.291 26.904-20.656 37.517-22.125h.001c10.725-1.494 19.512 1.173 28.152 4.395 1.208.45 2.414.913 3.624 1.376 7.414 2.84 14.923 5.715 23.557 6.226h.005c5.32.266 10.514.01 15.754-.812 14.064-2.199 28.048-8.018 41.386-14.906 8.796-4.543 17.339-9.567 25.442-14.333 4.175-2.455 8.233-4.842 12.149-7.059h.001c3.891-2.211 8.223-4.843 12.884-7.674 11.006-6.687 23.844-14.486 37.038-20.487 18.792-8.548 38.093-13.34 53.63-6.164h.001c13.703 6.288 20.444 21.82 23.342 36.645z" stroke="#FF8F2A" stroke-miterlimit="10"/><path d="M256.797 52.677l-.002.001c-4.311 2.435-8.785 5.067-13.39 7.776-8.515 5.01-17.479 10.284-26.698 15.062-14.216 7.367-29.109 13.592-44.058 15.915h-.001l-.077-.493c-5.552.9-11.057 1.24-16.559.846l100.785-39.107zm0 0c4.087-2.327 8.639-5.094 13.54-8.073 11.74-7.137 25.477-15.488 39.601-21.906 20.03-9.103 40.628-14.213 57.198-6.557 14.457 6.744 21.625 23.27 24.711 39.24 2.171 11.296 2.933 22.805 3.662 34.347l.055.878c.709 11.239 1.419 22.503 3.41 33.566 1.894 11.498 5.169 20.744 9.695 28.68l.001.001c10.456 18.21 27.338 28.73 49.252 40.407 23.512 12.584 34.286 32.012 36.58 53.65 2.297 21.666-3.91 45.566-14.427 67.013v.001c-7.926 16.213-17.221 32.014-28.889 45.922v.001c-2.7 3.222-5.599 6.76-8.672 10.51-12.444 15.186-27.736 33.848-44.157 49.11-10.236 9.514-20.887 17.683-31.532 22.858-10.643 5.175-21.245 7.341-31.411 4.908h-.002c-1.892-.445-3.655-1.686-5.324-3.601-1.67-1.914-3.219-4.471-4.685-7.486-2.935-6.032-5.497-13.805-8.035-21.717l-.592-1.848c-2.334-7.289-4.669-14.584-7.27-20.568-1.411-3.246-2.908-6.125-4.537-8.418-1.627-2.29-3.41-4.03-5.405-4.949h-.001c-10.019-4.59-20.198-8.154-30.266-11.68-4.884-1.709-9.741-3.41-14.542-5.215-14.724-5.533-28.979-12.061-42.062-22.856-7.768-6.427-17.245-9.441-27.633-10.583-10.384-1.141-21.712-.416-33.206.662-2.723.255-5.455.531-8.186.806-8.816.887-17.628 1.775-26.13 1.998-11.132.293-21.676-.556-30.917-4.012h0c-1.428-.533-2.553-1.659-3.428-3.331-.878-1.677-1.488-3.874-1.889-6.484-.801-5.22-.748-11.964-.434-19.198.132-3.041.31-6.176.488-9.313.244-4.293.489-8.592.615-12.667.22-7.058.09-13.551-1.018-18.368-.854-4.239-2.606-7.275-5.746-8.213l-.007-.002c-29.66-8.364-45.14-34.661-50.87-63.67-1.865-9.479-2.839-20.148 1.02-33.734l.004-.012.003-.013c.083-.366.23-.841.385-1.343l.001-.002c5.486-17.968 17.601-35.169 31.22-48.275C70.6 90.022 85.659 81.085 96.983 79.534h.003c11.47-1.63 20.823 1.195 30.016 4.625 1.304.486 2.605.985 3.909 1.485 7.874 3.02 15.853 6.079 25.068 6.639l100.819-39.606zM299.355 379.1c-9.999-4.58-20.139-8.13-30.195-11.651-19.834-6.944-39.34-13.774-56.785-28.168-17.149-14.19-42.819-11.606-68.644-9.005-20.368 2.051-40.832 4.111-57.285-2.042-7.634-2.848-6.61-20.857-5.586-38.837.666-11.704 1.33-23.396-.394-30.886-.842-4.191-2.534-6.984-5.4-7.84L299.355 379.1zm0 0c7.244 3.335 12.078 18.432 16.946 33.64m-16.946-33.64l16.946 33.64m0 0c5.262 16.435 10.565 32.998 18.997 34.98l-18.997-34.98z" stroke="#FF8F2A" stroke-miterlimit="10"/><path d="M492.226 322.769l.449.219-.449-.219c-8.405 17.245-18.354 34.123-30.782 49.043-2.912 3.474-6.047 7.302-9.376 11.367-13.152 16.059-29.33 35.814-46.705 52.004-10.883 10.141-22.213 18.86-33.533 24.387-11.319 5.527-22.593 7.845-33.394 5.247h-.002c-2.001-.474-3.865-1.801-5.63-3.846-1.764-2.044-3.402-4.773-4.952-7.99-3.103-6.435-5.815-14.727-8.504-23.163l-.595-1.868c-2.484-7.807-4.971-15.623-7.743-22.026-1.498-3.458-3.086-6.523-4.814-8.962-1.725-2.436-3.614-4.283-5.726-5.253l-.001-.001c-10.59-4.845-21.356-8.619-32.011-12.354-5.246-1.838-10.465-3.668-15.623-5.611-15.661-5.9-30.826-12.87-44.725-24.38-8.231-6.819-18.288-10.001-29.32-11.185-11.027-1.184-23.063-.377-35.276.808-2.911.282-5.831.586-8.751.89-9.348.973-18.69 1.945-27.699 2.213-11.819.351-23.007-.512-32.796-4.154h-.001c-1.843-.683-3.209-2.315-4.189-4.79-.98-2.476-1.546-5.73-1.826-9.531-.553-7.525.025-17.046.604-26.598l.017-.288c.584-9.625 1.158-19.264.538-26.798-.31-3.766-.92-7.047-2.001-9.552-1.083-2.511-2.666-4.304-4.944-4.962h-.001c-31.364-8.954-47.786-36.855-53.766-67.633v-.002c-1.992-9.995-2.963-21.398 1.14-35.87v-.001c5.461-19.376 18.353-37.979 32.965-52.175 14.626-14.209 30.891-23.922 43.048-25.63 12.183-1.713 22.129 1.288 31.899 4.92 1.375.512 2.748 1.036 4.124 1.561 8.377 3.2 16.857 6.439 26.641 7.02 18.864 1.147 37.925-5.05 56.111-13.699 12.831-6.102 25.269-13.45 36.911-20.326 4.85-2.865 9.562-5.648 14.107-8.226h.001c4.323-2.466 9.147-5.404 14.345-8.571 12.454-7.587 27.058-16.483 42.073-23.322 21.294-9.698 43.203-15.15 60.773-6.962 15.49 7.222 23.021 24.85 26.254 41.794h0c2.287 11.955 3.078 24.144 3.805 36.383l.099 1.674c.691 11.675 1.385 23.387 3.331 34.921h0c3.402 20.102 10.616 33.97 21.192 45.039 10.561 11.053 24.453 19.29 41.148 28.169 25.028 13.357 36.449 34.023 38.863 57.04 2.417 23.045-4.197 48.466-15.303 71.249z" stroke="#FF8F2A" stroke-miterlimit="10"/></g><defs><clipPath id="clip0_1002:884"><path fill="#fff" d="M0 0h527v480H0z"/></clipPath></defs></svg>