<svg width="54" height="54" viewBox="0 0 54 54" fill="none" xmlns="http://www.w3.org/2000/svg"><circle cx="27" cy="27" r="26.5" stroke="#A6B4BF"/><g clip-path="url(#clip0_544:1121)"><path d="M37.125 22.668v1.645a4.821 4.821 0 01-4.813 4.812 4.821 4.821 0 01-4.812-4.813v-2.187h-1.391a.228.228 0 01-.149-.061l-1.242-1.243a1.516 1.516 0 00-1.077-.446h-4.235A2.405 2.405 0 0017 22.781V33.72a2.405 2.405 0 002.406 2.406h16.188A2.405 2.405 0 0038 33.719V24.53a2.43 2.43 0 00-.875-1.863z" fill="url(#paint0_radial_544:1121)"/><path d="M32.313 27.375a3.066 3.066 0 01-3.063-3.063V19.72c0-1.086.884-1.969 1.969-1.969s1.968.883 1.968 1.969v4.375a.656.656 0 01-1.312 0V19.72a.657.657 0 00-1.313 0v4.593a1.75 1.75 0 003.5 0v-5.906a.657.657 0 011.313 0v5.907a3.066 3.066 0 01-3.063 3.062z" fill="url(#paint1_radial_544:1121)"/></g><defs><radialGradient id="paint0_radial_544:1121" cx="0" cy="0" r="1" gradientUnits="userSpaceOnUse" gradientTransform="rotate(143.025 9.027 18.722) scale(12.6502 33.2568)"><stop stop-color="#272936"/><stop offset="1" stop-color="#19162C"/></radialGradient><radialGradient id="paint1_radial_544:1121" cx="0" cy="0" r="1" gradientUnits="userSpaceOnUse" gradientTransform="rotate(122.372 9.95 20.168) scale(5.50533 13.6208)"><stop stop-color="#272936"/><stop offset="1" stop-color="#19162C"/></radialGradient><clipPath id="clip0_544:1121"><path fill="#fff" transform="translate(17 16)" d="M0 0h21v21H0z"/></clipPath></defs></svg>